<svg xmlns="http://www.w3.org/2000/svg" xmlns:xlink="http://www.w3.org/1999/xlink" width="1920" zoomAndPan="magnify" viewBox="0 0 1440 809.999993" height="1080" preserveAspectRatio="xMidYMid meet" version="1.0"><defs><g/><clipPath id="7f15905190"><path d="M 75 271.285156 L 333 271.285156 L 333 538.484375 L 75 538.484375 Z M 75 271.285156 " clip-rule="nonzero"/></clipPath><linearGradient x1="10.08479" gradientTransform="matrix(1, 0, 0, 1, -0.0000000384241, -0.00000124199)" y1="15.335269" x2="16.401198" gradientUnits="userSpaceOnUse" y2="30.264465" id="681a5236d5"><stop stop-opacity="1" stop-color="rgb(3.49884%, 66.299438%, 68.998718%)" offset="0"/><stop stop-opacity="1" stop-color="rgb(3.49884%, 66.299438%, 68.998718%)" offset="0.25"/><stop stop-opacity="1" stop-color="rgb(3.535461%, 66.131592%, 69.166565%)" offset="0.265625"/><stop stop-opacity="1" stop-color="rgb(3.611755%, 65.794373%, 69.503784%)" offset="0.273438"/><stop stop-opacity="1" stop-color="rgb(3.688049%, 65.454102%, 69.842529%)" offset="0.28125"/><stop stop-opacity="1" stop-color="rgb(3.764343%, 65.113831%, 70.1828%)" offset="0.289062"/><stop stop-opacity="1" stop-color="rgb(3.839111%, 64.775085%, 70.523071%)" offset="0.296875"/><stop stop-opacity="1" stop-color="rgb(3.915405%, 64.434814%, 70.861816%)" offset="0.304688"/><stop stop-opacity="1" stop-color="rgb(3.991699%, 64.094543%, 71.202087%)" offset="0.310323"/><stop stop-opacity="1" stop-color="rgb(4.029846%, 63.925171%, 71.372986%)" offset="0.3125"/><stop stop-opacity="1" stop-color="rgb(4.067993%, 63.755798%, 71.542358%)" offset="0.320312"/><stop stop-opacity="1" stop-color="rgb(4.144287%, 63.415527%, 71.882629%)" offset="0.328125"/><stop stop-opacity="1" stop-color="rgb(4.219055%, 63.075256%, 72.221375%)" offset="0.335937"/><stop stop-opacity="1" stop-color="rgb(4.295349%, 62.736511%, 72.561646%)" offset="0.34375"/><stop stop-opacity="1" stop-color="rgb(4.371643%, 62.39624%, 72.901917%)" offset="0.351562"/><stop stop-opacity="1" stop-color="rgb(4.447937%, 62.055969%, 73.240662%)" offset="0.359375"/><stop stop-opacity="1" stop-color="rgb(4.524231%, 61.715698%, 73.580933%)" offset="0.367187"/><stop stop-opacity="1" stop-color="rgb(4.598999%, 61.376953%, 73.921204%)" offset="0.375"/><stop stop-opacity="1" stop-color="rgb(4.675293%, 61.036682%, 74.259949%)" offset="0.382812"/><stop stop-opacity="1" stop-color="rgb(4.751587%, 60.696411%, 74.60022%)" offset="0.390625"/><stop stop-opacity="1" stop-color="rgb(4.827881%, 60.357666%, 74.940491%)" offset="0.398437"/><stop stop-opacity="1" stop-color="rgb(4.904175%, 60.017395%, 75.280762%)" offset="0.40625"/><stop stop-opacity="1" stop-color="rgb(4.978943%, 59.677124%, 75.619507%)" offset="0.414062"/><stop stop-opacity="1" stop-color="rgb(5.055237%, 59.338379%, 75.959778%)" offset="0.421875"/><stop stop-opacity="1" stop-color="rgb(5.131531%, 58.998108%, 76.300049%)" offset="0.429687"/><stop stop-opacity="1" stop-color="rgb(5.207825%, 58.657837%, 76.638794%)" offset="0.4375"/><stop stop-opacity="1" stop-color="rgb(5.284119%, 58.317566%, 76.979065%)" offset="0.445312"/><stop stop-opacity="1" stop-color="rgb(5.358887%, 57.978821%, 77.319336%)" offset="0.453125"/><stop stop-opacity="1" stop-color="rgb(5.435181%, 57.63855%, 77.658081%)" offset="0.460937"/><stop stop-opacity="1" stop-color="rgb(5.511475%, 57.298279%, 77.998352%)" offset="0.46875"/><stop stop-opacity="1" stop-color="rgb(5.587769%, 56.959534%, 78.338623%)" offset="0.476562"/><stop stop-opacity="1" stop-color="rgb(5.664062%, 56.619263%, 78.678894%)" offset="0.484375"/><stop stop-opacity="1" stop-color="rgb(5.738831%, 56.278992%, 79.017639%)" offset="0.492188"/><stop stop-opacity="1" stop-color="rgb(5.815125%, 55.940247%, 79.35791%)" offset="0.5"/><stop stop-opacity="1" stop-color="rgb(5.891418%, 55.599976%, 79.698181%)" offset="0.507812"/><stop stop-opacity="1" stop-color="rgb(5.967712%, 55.259705%, 80.036926%)" offset="0.515625"/><stop stop-opacity="1" stop-color="rgb(6.044006%, 54.919434%, 80.377197%)" offset="0.523438"/><stop stop-opacity="1" stop-color="rgb(6.118774%, 54.580688%, 80.717468%)" offset="0.53125"/><stop stop-opacity="1" stop-color="rgb(6.195068%, 54.240417%, 81.056213%)" offset="0.539062"/><stop stop-opacity="1" stop-color="rgb(6.271362%, 53.900146%, 81.396484%)" offset="0.546875"/><stop stop-opacity="1" stop-color="rgb(6.347656%, 53.561401%, 81.736755%)" offset="0.554687"/><stop stop-opacity="1" stop-color="rgb(6.42395%, 53.22113%, 82.077026%)" offset="0.5625"/><stop stop-opacity="1" stop-color="rgb(6.498718%, 52.880859%, 82.415771%)" offset="0.570312"/><stop stop-opacity="1" stop-color="rgb(6.575012%, 52.542114%, 82.756042%)" offset="0.578125"/><stop stop-opacity="1" stop-color="rgb(6.651306%, 52.201843%, 83.096313%)" offset="0.585937"/><stop stop-opacity="1" stop-color="rgb(6.7276%, 51.861572%, 83.435059%)" offset="0.59375"/><stop stop-opacity="1" stop-color="rgb(6.803894%, 51.521301%, 83.77533%)" offset="0.601562"/><stop stop-opacity="1" stop-color="rgb(6.878662%, 51.182556%, 84.115601%)" offset="0.609375"/><stop stop-opacity="1" stop-color="rgb(6.954956%, 50.842285%, 84.454346%)" offset="0.617187"/><stop stop-opacity="1" stop-color="rgb(7.03125%, 50.502014%, 84.794617%)" offset="0.625"/><stop stop-opacity="1" stop-color="rgb(7.084656%, 50.265503%, 85.032654%)" offset="0.689677"/><stop stop-opacity="1" stop-color="rgb(7.099915%, 50.19989%, 85.099792%)" offset="0.75"/><stop stop-opacity="1" stop-color="rgb(7.099915%, 50.19989%, 85.099792%)" offset="1"/></linearGradient><clipPath id="bbe910f609"><path d="M 657 318 L 999 318 L 999 466 L 657 466 Z M 657 318 " clip-rule="nonzero"/></clipPath><clipPath id="0fcfb4701f"><path d="M 892.316406 463.992188 L 876.648438 446.71875 L 876.648438 359.347656 C 876.648438 354.714844 876.535156 350.28125 876.300781 346.042969 C 876.066406 342.46875 875.71875 338.894531 875.257812 335.320312 C 874.789062 331.746094 874.152344 328.902344 873.335938 326.785156 C 872.875 325.722656 872.414062 324.863281 871.945312 324.203125 C 871.597656 323.539062 871.25 322.945312 870.902344 322.414062 C 870.433594 321.886719 870.085938 321.355469 869.859375 320.828125 L 871.078125 318.046875 C 872.816406 318.839844 874.675781 319.898438 876.648438 321.222656 C 878.273438 322.414062 880.011719 323.9375 881.871094 325.789062 C 883.730469 327.644531 885.46875 330.09375 887.09375 333.136719 C 888.953125 336.976562 890.230469 340.949219 890.925781 345.050781 C 891.742188 349.023438 892.203125 353.789062 892.316406 359.347656 Z M 834.101562 383.769531 C 836.890625 384.699219 839.558594 385.957031 842.113281 387.542969 C 844.667969 389 846.875 390.722656 848.726562 392.707031 C 850.699219 394.558594 852.210938 396.613281 853.253906 398.863281 C 854.417969 401.113281 855 403.363281 855 405.613281 L 855 464.191406 L 841.070312 451.878906 C 838.976562 454.261719 836.25 456.445312 832.886719 458.433594 C 829.523438 460.417969 825.863281 462.007812 821.917969 463.199219 C 817.972656 464.257812 813.855469 464.851562 809.554688 464.984375 C 805.375 465.117188 801.375 464.585938 797.542969 463.394531 C 793.710938 462.203125 790.226562 460.285156 787.097656 457.636719 C 783.960938 454.988281 781.527344 451.480469 779.78125 447.113281 C 777.808594 442.480469 777.175781 437.847656 777.871094 433.214844 C 778.679688 428.582031 780.363281 424.410156 782.917969 420.703125 C 785.585938 416.867188 789.011719 413.753906 793.191406 411.371094 C 797.484375 408.855469 802.125 407.46875 807.121094 407.203125 C 812.230469 406.804688 817.503906 407.730469 822.960938 409.980469 C 828.53125 412.101562 833.988281 415.875 839.324219 421.300781 L 839.324219 405.8125 C 839.324219 401.972656 837.472656 399.0625 833.753906 397.074219 C 830.15625 394.957031 825.75 394.429688 820.527344 395.488281 C 816.808594 396.148438 813.855469 396.746094 811.648438 397.273438 C 809.441406 397.804688 807.355469 398.464844 805.375 399.257812 C 803.402344 399.921875 801.253906 400.78125 798.933594 401.839844 C 796.613281 402.898438 793.476562 404.289062 789.53125 406.011719 L 785.699219 396.082031 C 789.652344 394.230469 793.539062 392.441406 797.371094 390.722656 C 800.734375 389.265625 804.277344 387.808594 807.988281 386.351562 C 811.820312 384.898438 815.296875 383.769531 818.433594 382.976562 C 818.667969 382.84375 818.902344 382.777344 819.128906 382.777344 C 819.476562 382.777344 819.773438 382.710938 820 382.582031 L 820 381.378906 L 770.910156 381.378906 L 770.910156 381.382812 L 757.199219 381.382812 L 757.199219 462.132812 L 740.789062 462.132812 L 740.789062 381.382812 L 722.429688 381.382812 L 722.304688 381.574219 C 724.023438 383.785156 725.320312 386.402344 726.203125 389.421875 C 727.125 392.398438 727.585938 395.394531 727.585938 398.414062 C 727.585938 401.519531 727.101562 404.558594 726.140625 407.535156 C 725.175781 410.46875 723.8125 413.273438 722.050781 415.953125 C 720.292969 418.632812 718.175781 421.140625 715.703125 423.480469 C 713.226562 425.777344 710.480469 427.816406 707.464844 429.605469 L 707.464844 429.921875 C 709.433594 431.199219 711.53125 432.835938 713.753906 434.835938 C 715.972656 436.832031 718.175781 439 720.355469 441.339844 C 722.535156 443.636719 724.628906 446.039062 726.640625 448.546875 C 728.652344 451.015625 730.476562 453.375 732.113281 455.628906 L 720.542969 465.003906 C 718.992188 462.921875 717.191406 460.625 715.136719 458.117188 C 713.082031 455.605469 710.859375 453.078125 708.46875 450.523438 C 706.121094 447.972656 703.628906 445.507812 700.988281 443.125 C 698.390625 440.703125 695.75 438.535156 693.066406 436.621094 C 689.710938 437.894531 686.316406 438.535156 682.878906 438.535156 C 680.238281 438.535156 677.910156 438.171875 675.898438 437.449219 C 673.886719 436.683594 672.191406 435.707031 670.804688 434.515625 C 669.464844 433.324219 668.4375 431.984375 667.726562 430.496094 C 667.054688 429.007812 666.71875 427.519531 666.71875 426.03125 C 666.71875 424.714844 666.992188 423.460938 667.535156 422.269531 C 668.082031 421.035156 668.878906 419.953125 669.925781 419.015625 C 671.015625 418.082031 672.378906 417.335938 674.011719 416.785156 C 675.648438 416.1875 677.554688 415.890625 679.734375 415.890625 C 682.25 415.890625 684.808594 416.273438 687.40625 417.039062 C 690.046875 417.804688 692.5 418.886719 694.761719 420.292969 C 695.222656 420.164062 695.9375 419.886719 696.902344 419.464844 C 697.90625 418.996094 699.015625 418.355469 700.234375 417.550781 C 701.492188 416.742188 702.769531 415.761719 704.070312 414.617188 C 705.367188 413.425781 706.5625 412.042969 707.652344 410.46875 C 708.742188 408.894531 709.621094 407.109375 710.292969 405.109375 C 711.007812 403.113281 711.363281 400.878906 711.363281 398.414062 C 711.363281 396.246094 711.070312 394.160156 710.480469 392.164062 C 709.894531 390.164062 709.015625 388.398438 707.839844 386.867188 C 706.710938 385.339844 705.304688 384.125 703.628906 383.234375 C 701.953125 382.296875 700.042969 381.832031 697.90625 381.832031 C 696.3125 381.832031 694.972656 382.0625 693.882812 382.53125 C 692.835938 383 691.976562 383.617188 691.304688 384.382812 C 690.675781 385.148438 690.214844 385.996094 689.921875 386.933594 C 689.671875 387.867188 689.542969 388.804688 689.542969 389.738281 C 689.542969 392.417969 690.464844 394.480469 692.3125 395.925781 C 694.199219 397.328125 696.902344 398.03125 700.421875 398.03125 L 700.421875 412.445312 C 700.085938 412.488281 699.792969 412.511719 699.542969 412.511719 L 699.164062 412.511719 C 695.140625 412.511719 691.515625 411.9375 688.285156 410.789062 C 685.058594 409.640625 682.3125 408.085938 680.050781 406.132812 C 677.828125 404.132812 676.109375 401.816406 674.894531 399.179688 C 673.679688 396.542969 673.070312 393.714844 673.070312 390.695312 C 673.070312 387.71875 673.699219 384.65625 674.957031 381.511719 L 674.832031 381.382812 L 657.226562 381.382812 L 657.226562 367.03125 L 859.019531 367.03125 L 864.53125 381.378906 L 834.101562 381.378906 Z M 839.324219 433.214844 C 834.804688 429.242188 830.042969 426.332031 825.054688 424.476562 C 820.058594 422.492188 815.417969 421.566406 811.125 421.699219 C 806.824219 421.828125 803.113281 423.019531 799.976562 425.273438 C 796.847656 427.390625 794.875 430.566406 794.058594 434.800781 C 793.128906 439.4375 793.363281 443.078125 794.753906 445.722656 C 796.152344 448.371094 798.179688 450.222656 800.855469 451.285156 C 803.636719 452.34375 806.824219 452.738281 810.421875 452.476562 C 814.140625 452.210938 817.800781 451.480469 821.398438 450.289062 C 825.109375 449.101562 828.53125 447.644531 831.667969 445.921875 C 834.917969 444.203125 837.472656 442.414062 839.324219 440.5625 Z M 972.015625 387.542969 C 969.460938 385.957031 966.792969 384.699219 964.007812 383.769531 L 964.007812 381.378906 L 998.273438 381.378906 L 998.273438 367.03125 L 904.652344 367.03125 L 911.339844 381.378906 L 949.90625 381.378906 L 949.90625 382.582031 C 949.671875 382.710938 949.382812 382.777344 949.035156 382.777344 C 948.800781 382.777344 948.570312 382.84375 948.335938 382.976562 C 945.203125 383.769531 941.722656 384.898438 937.890625 386.351562 C 934.175781 387.808594 930.632812 389.265625 927.269531 390.722656 C 923.4375 392.441406 919.550781 394.230469 915.605469 396.082031 L 919.433594 406.011719 C 923.382812 404.289062 926.515625 402.898438 928.835938 401.839844 C 931.160156 400.78125 933.308594 399.921875 935.28125 399.257812 C 937.253906 398.464844 939.339844 397.804688 941.546875 397.273438 C 943.753906 396.746094 946.710938 396.148438 950.425781 395.488281 C 955.652344 394.429688 960.0625 394.957031 963.660156 397.074219 C 967.375 399.0625 969.230469 401.972656 969.230469 405.8125 L 969.230469 421.300781 C 963.890625 415.875 958.4375 412.101562 952.863281 409.980469 C 947.410156 407.730469 942.128906 406.804688 937.019531 407.203125 C 932.03125 407.46875 927.382812 408.855469 923.089844 411.371094 C 918.910156 413.753906 915.488281 416.867188 912.820312 420.703125 C 910.265625 424.410156 908.585938 428.582031 907.769531 433.214844 C 907.074219 437.847656 907.710938 442.480469 909.683594 447.113281 C 911.425781 451.480469 913.863281 454.988281 917 457.636719 C 920.132812 460.285156 923.613281 462.203125 927.445312 463.394531 C 931.277344 464.585938 935.28125 465.117188 939.460938 464.984375 C 943.753906 464.851562 947.875 464.257812 951.820312 463.199219 C 955.765625 462.007812 959.421875 460.417969 962.785156 458.433594 C 966.15625 456.445312 968.882812 454.261719 970.972656 451.878906 L 984.902344 464.191406 L 984.902344 405.613281 C 984.902344 403.363281 984.320312 401.113281 983.160156 398.863281 C 982.113281 396.613281 980.605469 394.558594 978.632812 392.707031 C 976.777344 390.722656 974.570312 389 972.015625 387.542969 Z M 897.511719 359.347656 L 897.511719 359.730469 L 897.324219 359.347656 Z M 954.953125 424.476562 C 959.945312 426.332031 964.703125 429.242188 969.230469 433.214844 L 969.230469 440.5625 C 967.375 442.414062 964.820312 444.203125 961.570312 445.921875 C 958.4375 447.644531 955.007812 449.101562 951.296875 450.289062 C 947.699219 451.480469 944.042969 452.210938 940.328125 452.476562 C 936.730469 452.738281 933.535156 452.34375 930.753906 451.285156 C 928.085938 450.222656 926.050781 448.371094 924.660156 445.722656 C 923.265625 443.078125 923.035156 439.4375 923.960938 434.800781 C 924.773438 430.566406 926.75 427.390625 929.882812 425.273438 C 933.015625 423.019531 936.730469 421.828125 941.023438 421.699219 C 945.320312 421.566406 949.960938 422.492188 954.953125 424.476562 Z M 954.953125 424.476562 " clip-rule="evenodd"/></clipPath><linearGradient x1="85.074715" gradientTransform="matrix(6.68726, 0, 0, 6.679912, 75.433157, 271.287068)" y1="14.912538" x2="138.281737" gradientUnits="userSpaceOnUse" y2="27.858909" id="16faf418e3"><stop stop-opacity="1" stop-color="rgb(3.49884%, 66.299438%, 68.998718%)" offset="0"/><stop stop-opacity="1" stop-color="rgb(3.49884%, 66.299438%, 68.998718%)" offset="0.03125"/><stop stop-opacity="1" stop-color="rgb(3.529358%, 66.152954%, 69.142151%)" offset="0.046875"/><stop stop-opacity="1" stop-color="rgb(3.581238%, 65.901184%, 69.390869%)" offset="0.0546875"/><stop stop-opacity="1" stop-color="rgb(3.627014%, 65.687561%, 69.60144%)" offset="0.0625"/><stop stop-opacity="1" stop-color="rgb(3.671265%, 65.473938%, 69.810486%)" offset="0.0703125"/><stop stop-opacity="1" stop-color="rgb(3.715515%, 65.261841%, 70.021057%)" offset="0.078125"/><stop stop-opacity="1" stop-color="rgb(3.759766%, 65.048218%, 70.231628%)" offset="0.0859375"/><stop stop-opacity="1" stop-color="rgb(3.805542%, 64.834595%, 70.440674%)" offset="0.09375"/><stop stop-opacity="1" stop-color="rgb(3.849792%, 64.620972%, 70.651245%)" offset="0.0950571"/><stop stop-opacity="1" stop-color="rgb(3.872681%, 64.515686%, 70.756531%)" offset="0.101562"/><stop stop-opacity="1" stop-color="rgb(3.894043%, 64.408875%, 70.860291%)" offset="0.109375"/><stop stop-opacity="1" stop-color="rgb(3.938293%, 64.195251%, 71.070862%)" offset="0.117187"/><stop stop-opacity="1" stop-color="rgb(3.982544%, 63.981628%, 71.281433%)" offset="0.125"/><stop stop-opacity="1" stop-color="rgb(4.02832%, 63.768005%, 71.490479%)" offset="0.132812"/><stop stop-opacity="1" stop-color="rgb(4.072571%, 63.555908%, 71.70105%)" offset="0.140625"/><stop stop-opacity="1" stop-color="rgb(4.116821%, 63.342285%, 71.910095%)" offset="0.148438"/><stop stop-opacity="1" stop-color="rgb(4.161072%, 63.128662%, 72.120667%)" offset="0.15625"/><stop stop-opacity="1" stop-color="rgb(4.206848%, 62.916565%, 72.331238%)" offset="0.164062"/><stop stop-opacity="1" stop-color="rgb(4.251099%, 62.702942%, 72.540283%)" offset="0.171875"/><stop stop-opacity="1" stop-color="rgb(4.295349%, 62.489319%, 72.750854%)" offset="0.179687"/><stop stop-opacity="1" stop-color="rgb(4.3396%, 62.275696%, 72.9599%)" offset="0.1875"/><stop stop-opacity="1" stop-color="rgb(4.38385%, 62.063599%, 73.170471%)" offset="0.195312"/><stop stop-opacity="1" stop-color="rgb(4.429626%, 61.849976%, 73.381042%)" offset="0.203125"/><stop stop-opacity="1" stop-color="rgb(4.473877%, 61.636353%, 73.590088%)" offset="0.210937"/><stop stop-opacity="1" stop-color="rgb(4.518127%, 61.424255%, 73.800659%)" offset="0.21875"/><stop stop-opacity="1" stop-color="rgb(4.562378%, 61.210632%, 74.009705%)" offset="0.226562"/><stop stop-opacity="1" stop-color="rgb(4.608154%, 60.997009%, 74.220276%)" offset="0.234375"/><stop stop-opacity="1" stop-color="rgb(4.652405%, 60.783386%, 74.430847%)" offset="0.242188"/><stop stop-opacity="1" stop-color="rgb(4.696655%, 60.571289%, 74.639893%)" offset="0.25"/><stop stop-opacity="1" stop-color="rgb(4.740906%, 60.357666%, 74.850464%)" offset="0.257812"/><stop stop-opacity="1" stop-color="rgb(4.785156%, 60.144043%, 75.059509%)" offset="0.265625"/><stop stop-opacity="1" stop-color="rgb(4.830933%, 59.93042%, 75.270081%)" offset="0.273437"/><stop stop-opacity="1" stop-color="rgb(4.875183%, 59.718323%, 75.480652%)" offset="0.28125"/><stop stop-opacity="1" stop-color="rgb(4.919434%, 59.5047%, 75.689697%)" offset="0.289062"/><stop stop-opacity="1" stop-color="rgb(4.963684%, 59.291077%, 75.900269%)" offset="0.296875"/><stop stop-opacity="1" stop-color="rgb(5.007935%, 59.078979%, 76.109314%)" offset="0.304687"/><stop stop-opacity="1" stop-color="rgb(5.053711%, 58.865356%, 76.319885%)" offset="0.3125"/><stop stop-opacity="1" stop-color="rgb(5.097961%, 58.651733%, 76.528931%)" offset="0.320312"/><stop stop-opacity="1" stop-color="rgb(5.142212%, 58.43811%, 76.739502%)" offset="0.328125"/><stop stop-opacity="1" stop-color="rgb(5.186462%, 58.226013%, 76.950073%)" offset="0.335938"/><stop stop-opacity="1" stop-color="rgb(5.232239%, 58.01239%, 77.159119%)" offset="0.34375"/><stop stop-opacity="1" stop-color="rgb(5.276489%, 57.798767%, 77.36969%)" offset="0.351562"/><stop stop-opacity="1" stop-color="rgb(5.32074%, 57.58667%, 77.578735%)" offset="0.359375"/><stop stop-opacity="1" stop-color="rgb(5.36499%, 57.373047%, 77.789307%)" offset="0.367188"/><stop stop-opacity="1" stop-color="rgb(5.409241%, 57.159424%, 77.999878%)" offset="0.375"/><stop stop-opacity="1" stop-color="rgb(5.455017%, 56.945801%, 78.208923%)" offset="0.382812"/><stop stop-opacity="1" stop-color="rgb(5.499268%, 56.733704%, 78.419495%)" offset="0.390625"/><stop stop-opacity="1" stop-color="rgb(5.543518%, 56.520081%, 78.62854%)" offset="0.398438"/><stop stop-opacity="1" stop-color="rgb(5.587769%, 56.306458%, 78.839111%)" offset="0.40625"/><stop stop-opacity="1" stop-color="rgb(5.633545%, 56.092834%, 79.049683%)" offset="0.414062"/><stop stop-opacity="1" stop-color="rgb(5.677795%, 55.880737%, 79.258728%)" offset="0.421875"/><stop stop-opacity="1" stop-color="rgb(5.722046%, 55.667114%, 79.469299%)" offset="0.429688"/><stop stop-opacity="1" stop-color="rgb(5.766296%, 55.453491%, 79.678345%)" offset="0.4375"/><stop stop-opacity="1" stop-color="rgb(5.810547%, 55.241394%, 79.888916%)" offset="0.445313"/><stop stop-opacity="1" stop-color="rgb(5.856323%, 55.027771%, 80.099487%)" offset="0.453125"/><stop stop-opacity="1" stop-color="rgb(5.900574%, 54.814148%, 80.308533%)" offset="0.460938"/><stop stop-opacity="1" stop-color="rgb(5.944824%, 54.600525%, 80.519104%)" offset="0.46875"/><stop stop-opacity="1" stop-color="rgb(5.989075%, 54.388428%, 80.728149%)" offset="0.476563"/><stop stop-opacity="1" stop-color="rgb(6.034851%, 54.174805%, 80.938721%)" offset="0.484375"/><stop stop-opacity="1" stop-color="rgb(6.079102%, 53.961182%, 81.149292%)" offset="0.492188"/><stop stop-opacity="1" stop-color="rgb(6.123352%, 53.749084%, 81.358337%)" offset="0.5"/><stop stop-opacity="1" stop-color="rgb(6.167603%, 53.535461%, 81.568909%)" offset="0.507812"/><stop stop-opacity="1" stop-color="rgb(6.211853%, 53.321838%, 81.777954%)" offset="0.515625"/><stop stop-opacity="1" stop-color="rgb(6.257629%, 53.108215%, 81.988525%)" offset="0.523437"/><stop stop-opacity="1" stop-color="rgb(6.30188%, 52.896118%, 82.199097%)" offset="0.53125"/><stop stop-opacity="1" stop-color="rgb(6.34613%, 52.682495%, 82.408142%)" offset="0.539062"/><stop stop-opacity="1" stop-color="rgb(6.390381%, 52.468872%, 82.618713%)" offset="0.546875"/><stop stop-opacity="1" stop-color="rgb(6.434631%, 52.255249%, 82.827759%)" offset="0.554687"/><stop stop-opacity="1" stop-color="rgb(6.480408%, 52.043152%, 83.03833%)" offset="0.5625"/><stop stop-opacity="1" stop-color="rgb(6.524658%, 51.829529%, 83.248901%)" offset="0.570312"/><stop stop-opacity="1" stop-color="rgb(6.568909%, 51.615906%, 83.457947%)" offset="0.578125"/><stop stop-opacity="1" stop-color="rgb(6.613159%, 51.403809%, 83.668518%)" offset="0.585937"/><stop stop-opacity="1" stop-color="rgb(6.658936%, 51.190186%, 83.877563%)" offset="0.59375"/><stop stop-opacity="1" stop-color="rgb(6.703186%, 50.976562%, 84.088135%)" offset="0.601562"/><stop stop-opacity="1" stop-color="rgb(6.747437%, 50.762939%, 84.298706%)" offset="0.609375"/><stop stop-opacity="1" stop-color="rgb(6.791687%, 50.550842%, 84.507751%)" offset="0.617187"/><stop stop-opacity="1" stop-color="rgb(6.835938%, 50.337219%, 84.718323%)" offset="0.625"/><stop stop-opacity="1" stop-color="rgb(6.881714%, 50.123596%, 84.927368%)" offset="0.632812"/><stop stop-opacity="1" stop-color="rgb(6.925964%, 49.911499%, 85.137939%)" offset="0.640625"/><stop stop-opacity="1" stop-color="rgb(6.970215%, 49.697876%, 85.348511%)" offset="0.648438"/><stop stop-opacity="1" stop-color="rgb(7.014465%, 49.484253%, 85.557556%)" offset="0.65625"/><stop stop-opacity="1" stop-color="rgb(7.060242%, 49.27063%, 85.768127%)" offset="0.664062"/><stop stop-opacity="1" stop-color="rgb(7.104492%, 49.058533%, 85.977173%)" offset="0.671875"/><stop stop-opacity="1" stop-color="rgb(7.148743%, 48.84491%, 86.187744%)" offset="0.679688"/><stop stop-opacity="1" stop-color="rgb(7.192993%, 48.631287%, 86.398315%)" offset="0.6875"/><stop stop-opacity="1" stop-color="rgb(7.237244%, 48.419189%, 86.607361%)" offset="0.695312"/><stop stop-opacity="1" stop-color="rgb(7.28302%, 48.205566%, 86.817932%)" offset="0.703125"/><stop stop-opacity="1" stop-color="rgb(7.327271%, 47.991943%, 87.026978%)" offset="0.710938"/><stop stop-opacity="1" stop-color="rgb(7.371521%, 47.77832%, 87.237549%)" offset="0.71875"/><stop stop-opacity="1" stop-color="rgb(7.415771%, 47.566223%, 87.44812%)" offset="0.726562"/><stop stop-opacity="1" stop-color="rgb(7.461548%, 47.3526%, 87.657166%)" offset="0.734375"/><stop stop-opacity="1" stop-color="rgb(7.505798%, 47.138977%, 87.867737%)" offset="0.742188"/><stop stop-opacity="1" stop-color="rgb(7.550049%, 46.925354%, 88.076782%)" offset="0.75"/><stop stop-opacity="1" stop-color="rgb(7.594299%, 46.713257%, 88.287354%)" offset="0.757812"/><stop stop-opacity="1" stop-color="rgb(7.63855%, 46.499634%, 88.497925%)" offset="0.765625"/><stop stop-opacity="1" stop-color="rgb(7.684326%, 46.286011%, 88.70697%)" offset="0.773437"/><stop stop-opacity="1" stop-color="rgb(7.728577%, 46.073914%, 88.917542%)" offset="0.78125"/><stop stop-opacity="1" stop-color="rgb(7.772827%, 45.860291%, 89.126587%)" offset="0.789062"/><stop stop-opacity="1" stop-color="rgb(7.817078%, 45.646667%, 89.337158%)" offset="0.796875"/><stop stop-opacity="1" stop-color="rgb(7.862854%, 45.433044%, 89.546204%)" offset="0.804687"/><stop stop-opacity="1" stop-color="rgb(7.907104%, 45.220947%, 89.756775%)" offset="0.8125"/><stop stop-opacity="1" stop-color="rgb(7.951355%, 45.007324%, 89.967346%)" offset="0.820312"/><stop stop-opacity="1" stop-color="rgb(7.995605%, 44.793701%, 90.176392%)" offset="0.828125"/><stop stop-opacity="1" stop-color="rgb(8.039856%, 44.581604%, 90.386963%)" offset="0.835937"/><stop stop-opacity="1" stop-color="rgb(8.085632%, 44.367981%, 90.596008%)" offset="0.84375"/><stop stop-opacity="1" stop-color="rgb(8.129883%, 44.154358%, 90.80658%)" offset="0.851562"/><stop stop-opacity="1" stop-color="rgb(8.174133%, 43.940735%, 91.017151%)" offset="0.859375"/><stop stop-opacity="1" stop-color="rgb(8.218384%, 43.728638%, 91.226196%)" offset="0.867187"/><stop stop-opacity="1" stop-color="rgb(8.262634%, 43.515015%, 91.436768%)" offset="0.875"/><stop stop-opacity="1" stop-color="rgb(8.308411%, 43.301392%, 91.645813%)" offset="0.882812"/><stop stop-opacity="1" stop-color="rgb(8.352661%, 43.087769%, 91.856384%)" offset="0.890625"/><stop stop-opacity="1" stop-color="rgb(8.396912%, 42.875671%, 92.066956%)" offset="0.898437"/><stop stop-opacity="1" stop-color="rgb(8.441162%, 42.662048%, 92.276001%)" offset="0.904943"/><stop stop-opacity="1" stop-color="rgb(8.46405%, 42.555237%, 92.381287%)" offset="0.90625"/><stop stop-opacity="1" stop-color="rgb(8.486938%, 42.448425%, 92.486572%)" offset="0.914062"/><stop stop-opacity="1" stop-color="rgb(8.531189%, 42.236328%, 92.695618%)" offset="0.921875"/><stop stop-opacity="1" stop-color="rgb(8.575439%, 42.022705%, 92.906189%)" offset="0.929687"/><stop stop-opacity="1" stop-color="rgb(8.61969%, 41.809082%, 93.11676%)" offset="0.9375"/><stop stop-opacity="1" stop-color="rgb(8.66394%, 41.595459%, 93.325806%)" offset="0.945312"/><stop stop-opacity="1" stop-color="rgb(8.709717%, 41.383362%, 93.536377%)" offset="0.953125"/><stop stop-opacity="1" stop-color="rgb(8.753967%, 41.169739%, 93.745422%)" offset="0.960937"/><stop stop-opacity="1" stop-color="rgb(8.798218%, 40.956116%, 93.955994%)" offset="0.96875"/><stop stop-opacity="1" stop-color="rgb(8.842468%, 40.744019%, 94.166565%)" offset="0.976562"/><stop stop-opacity="1" stop-color="rgb(8.888245%, 40.530396%, 94.37561%)" offset="0.984375"/><stop stop-opacity="1" stop-color="rgb(8.932495%, 40.316772%, 94.586182%)" offset="0.992188"/><stop stop-opacity="1" stop-color="rgb(8.976746%, 40.104675%, 94.795227%)" offset="1"/></linearGradient><clipPath id="ee8fbfa4cd"><path d="M 1328.011719 352.402344 L 1364.960938 352.402344 L 1364.960938 389.355469 L 1328.011719 389.355469 Z M 1328.011719 352.402344 " clip-rule="nonzero"/></clipPath><clipPath id="ddf4cf7790"><path d="M 1346.5 352.402344 C 1336.289062 352.402344 1328.011719 360.679688 1328.011719 370.894531 C 1328.011719 381.105469 1336.289062 389.382812 1346.5 389.382812 C 1356.714844 389.382812 1364.992188 381.105469 1364.992188 370.894531 C 1364.992188 360.679688 1356.714844 352.402344 1346.5 352.402344 Z M 1346.5 352.402344 " clip-rule="nonzero"/></clipPath><clipPath id="78d436e2e1"><path d="M 1092.476562 378.164062 L 1202 378.164062 L 1202 458.699219 L 1092.476562 458.699219 Z M 1092.476562 378.164062 " clip-rule="nonzero"/></clipPath><clipPath id="4c366430c9"><path d="M 1160 446 L 1186 446 L 1186 471 L 1160 471 Z M 1160 446 " clip-rule="nonzero"/></clipPath><clipPath id="355ebd1d5e"><path d="M 1168.398438 443.464844 L 1188.847656 462.65625 L 1177.953125 474.261719 L 1157.503906 455.070312 Z M 1168.398438 443.464844 " clip-rule="nonzero"/></clipPath><clipPath id="2805ef06b9"><path d="M 1174.203125 448.910156 L 1183.035156 457.199219 C 1186.242188 460.210938 1186.402344 465.246094 1183.394531 468.453125 C 1180.386719 471.65625 1175.347656 471.816406 1172.144531 468.808594 L 1163.308594 460.519531 C 1160.105469 457.511719 1159.945312 452.472656 1162.953125 449.265625 C 1165.960938 446.0625 1170.996094 445.902344 1174.203125 448.910156 Z M 1174.203125 448.910156 " clip-rule="nonzero"/></clipPath><clipPath id="8873d33eb5"><path d="M 1103.472656 388.753906 L 1157.507812 388.753906 L 1157.507812 442.789062 L 1103.472656 442.789062 Z M 1103.472656 388.753906 " clip-rule="nonzero"/></clipPath><clipPath id="cfb002385d"><path d="M 1130.492188 388.753906 C 1115.570312 388.753906 1103.472656 400.851562 1103.472656 415.773438 C 1103.472656 430.691406 1115.570312 442.789062 1130.492188 442.789062 C 1145.410156 442.789062 1157.507812 430.691406 1157.507812 415.773438 C 1157.507812 400.851562 1145.410156 388.753906 1130.492188 388.753906 Z M 1130.492188 388.753906 " clip-rule="nonzero"/></clipPath><linearGradient x1="0.000132761" gradientTransform="matrix(0.21107, 0, 0, 0.21107, 1103.473627, 388.754627)" y1="128" x2="255.999989" gradientUnits="userSpaceOnUse" y2="128" id="6fe25759f2"><stop stop-opacity="1" stop-color="rgb(3.49884%, 65.899658%, 69.398499%)" offset="0"/><stop stop-opacity="1" stop-color="rgb(3.535461%, 65.718079%, 69.577026%)" offset="0.015625"/><stop stop-opacity="1" stop-color="rgb(3.608704%, 65.354919%, 69.932556%)" offset="0.03125"/><stop stop-opacity="1" stop-color="rgb(3.683472%, 64.993286%, 70.289612%)" offset="0.046875"/><stop stop-opacity="1" stop-color="rgb(3.756714%, 64.630127%, 70.645142%)" offset="0.0625"/><stop stop-opacity="1" stop-color="rgb(3.829956%, 64.266968%, 71.002197%)" offset="0.078125"/><stop stop-opacity="1" stop-color="rgb(3.903198%, 63.905334%, 71.357727%)" offset="0.09375"/><stop stop-opacity="1" stop-color="rgb(3.97644%, 63.542175%, 71.714783%)" offset="0.109375"/><stop stop-opacity="1" stop-color="rgb(4.049683%, 63.180542%, 72.070312%)" offset="0.125"/><stop stop-opacity="1" stop-color="rgb(4.122925%, 62.817383%, 72.427368%)" offset="0.140625"/><stop stop-opacity="1" stop-color="rgb(4.196167%, 62.45575%, 72.782898%)" offset="0.15625"/><stop stop-opacity="1" stop-color="rgb(4.270935%, 62.09259%, 73.139954%)" offset="0.171875"/><stop stop-opacity="1" stop-color="rgb(4.344177%, 61.729431%, 73.495483%)" offset="0.1875"/><stop stop-opacity="1" stop-color="rgb(4.417419%, 61.367798%, 73.852539%)" offset="0.203125"/><stop stop-opacity="1" stop-color="rgb(4.490662%, 61.004639%, 74.208069%)" offset="0.21875"/><stop stop-opacity="1" stop-color="rgb(4.563904%, 60.643005%, 74.565125%)" offset="0.234375"/><stop stop-opacity="1" stop-color="rgb(4.637146%, 60.279846%, 74.920654%)" offset="0.25"/><stop stop-opacity="1" stop-color="rgb(4.710388%, 59.918213%, 75.27771%)" offset="0.265625"/><stop stop-opacity="1" stop-color="rgb(4.78363%, 59.555054%, 75.63324%)" offset="0.28125"/><stop stop-opacity="1" stop-color="rgb(4.858398%, 59.191895%, 75.98877%)" offset="0.296875"/><stop stop-opacity="1" stop-color="rgb(4.931641%, 58.830261%, 76.345825%)" offset="0.3125"/><stop stop-opacity="1" stop-color="rgb(5.004883%, 58.467102%, 76.701355%)" offset="0.328125"/><stop stop-opacity="1" stop-color="rgb(5.078125%, 58.105469%, 77.058411%)" offset="0.34375"/><stop stop-opacity="1" stop-color="rgb(5.151367%, 57.74231%, 77.41394%)" offset="0.359375"/><stop stop-opacity="1" stop-color="rgb(5.224609%, 57.380676%, 77.770996%)" offset="0.375"/><stop stop-opacity="1" stop-color="rgb(5.297852%, 57.017517%, 78.126526%)" offset="0.390625"/><stop stop-opacity="1" stop-color="rgb(5.371094%, 56.655884%, 78.483582%)" offset="0.40625"/><stop stop-opacity="1" stop-color="rgb(5.445862%, 56.292725%, 78.839111%)" offset="0.421875"/><stop stop-opacity="1" stop-color="rgb(5.519104%, 55.929565%, 79.196167%)" offset="0.4375"/><stop stop-opacity="1" stop-color="rgb(5.592346%, 55.567932%, 79.551697%)" offset="0.453125"/><stop stop-opacity="1" stop-color="rgb(5.665588%, 55.204773%, 79.908752%)" offset="0.46875"/><stop stop-opacity="1" stop-color="rgb(5.738831%, 54.84314%, 80.264282%)" offset="0.484375"/><stop stop-opacity="1" stop-color="rgb(5.812073%, 54.47998%, 80.621338%)" offset="0.5"/><stop stop-opacity="1" stop-color="rgb(5.885315%, 54.118347%, 80.976868%)" offset="0.515625"/><stop stop-opacity="1" stop-color="rgb(5.958557%, 53.755188%, 81.333923%)" offset="0.53125"/><stop stop-opacity="1" stop-color="rgb(6.033325%, 53.392029%, 81.689453%)" offset="0.546875"/><stop stop-opacity="1" stop-color="rgb(6.106567%, 53.030396%, 82.044983%)" offset="0.5625"/><stop stop-opacity="1" stop-color="rgb(6.17981%, 52.667236%, 82.402039%)" offset="0.578125"/><stop stop-opacity="1" stop-color="rgb(6.253052%, 52.305603%, 82.757568%)" offset="0.59375"/><stop stop-opacity="1" stop-color="rgb(6.326294%, 51.942444%, 83.114624%)" offset="0.609375"/><stop stop-opacity="1" stop-color="rgb(6.399536%, 51.580811%, 83.470154%)" offset="0.625"/><stop stop-opacity="1" stop-color="rgb(6.472778%, 51.217651%, 83.827209%)" offset="0.640625"/><stop stop-opacity="1" stop-color="rgb(6.547546%, 50.854492%, 84.182739%)" offset="0.65625"/><stop stop-opacity="1" stop-color="rgb(6.620789%, 50.492859%, 84.539795%)" offset="0.671875"/><stop stop-opacity="1" stop-color="rgb(6.694031%, 50.1297%, 84.895325%)" offset="0.6875"/><stop stop-opacity="1" stop-color="rgb(6.767273%, 49.768066%, 85.25238%)" offset="0.703125"/><stop stop-opacity="1" stop-color="rgb(6.840515%, 49.404907%, 85.60791%)" offset="0.71875"/><stop stop-opacity="1" stop-color="rgb(6.913757%, 49.043274%, 85.964966%)" offset="0.734375"/><stop stop-opacity="1" stop-color="rgb(6.987%, 48.680115%, 86.320496%)" offset="0.75"/><stop stop-opacity="1" stop-color="rgb(7.060242%, 48.316956%, 86.677551%)" offset="0.765625"/><stop stop-opacity="1" stop-color="rgb(7.13501%, 47.955322%, 87.033081%)" offset="0.78125"/><stop stop-opacity="1" stop-color="rgb(7.208252%, 47.592163%, 87.390137%)" offset="0.796875"/><stop stop-opacity="1" stop-color="rgb(7.281494%, 47.23053%, 87.745667%)" offset="0.8125"/><stop stop-opacity="1" stop-color="rgb(7.354736%, 46.867371%, 88.102722%)" offset="0.828125"/><stop stop-opacity="1" stop-color="rgb(7.427979%, 46.505737%, 88.458252%)" offset="0.84375"/><stop stop-opacity="1" stop-color="rgb(7.501221%, 46.142578%, 88.813782%)" offset="0.859375"/><stop stop-opacity="1" stop-color="rgb(7.574463%, 45.779419%, 89.170837%)" offset="0.875"/><stop stop-opacity="1" stop-color="rgb(7.647705%, 45.417786%, 89.526367%)" offset="0.890625"/><stop stop-opacity="1" stop-color="rgb(7.722473%, 45.054626%, 89.883423%)" offset="0.90625"/><stop stop-opacity="1" stop-color="rgb(7.795715%, 44.692993%, 90.238953%)" offset="0.921875"/><stop stop-opacity="1" stop-color="rgb(7.868958%, 44.329834%, 90.596008%)" offset="0.9375"/><stop stop-opacity="1" stop-color="rgb(7.9422%, 43.968201%, 90.951538%)" offset="0.953125"/><stop stop-opacity="1" stop-color="rgb(8.015442%, 43.605042%, 91.308594%)" offset="0.96875"/><stop stop-opacity="1" stop-color="rgb(8.088684%, 43.243408%, 91.664124%)" offset="0.984375"/><stop stop-opacity="1" stop-color="rgb(8.161926%, 42.880249%, 92.021179%)" offset="1"/></linearGradient><clipPath id="d36d33fbbd"><path d="M 1122 400.359375 L 1139 400.359375 L 1139 417 L 1122 417 Z M 1122 400.359375 " clip-rule="nonzero"/></clipPath><clipPath id="046fa8669f"><path d="M 1119.671875 419 L 1141.464844 419 L 1141.464844 431.628906 L 1119.671875 431.628906 Z M 1119.671875 419 " clip-rule="nonzero"/></clipPath></defs><g clip-path="url(#7f15905190)"><path stroke-linecap="butt" transform="matrix(6.68726, 0, 0, 6.679912, 75.433157, 271.287076)" fill="none" stroke-linejoin="miter" d="M 9.32575 26.788286 C 11.522091 26.788286 13.326478 25.053841 13.41293 22.859178 L 13.48361 21.060993 C 13.499381 20.665685 13.592259 20.277394 13.7564 19.917172 C 14.251161 18.834167 15.332975 18.138869 16.524023 18.138869 L 18.750154 18.138869 " stroke="url(#681a5236d5)" stroke-width="3.486" stroke-miterlimit="4"/></g><path fill="#ffffff" d="M 165.421875 380.378906 L 165.421875 345.019531 L 147.292969 349.824219 L 147.292969 380.378906 Z M 165.992188 380.378906 L 136.085938 380.378906 C 113.667969 380.378906 95.496094 398.53125 95.496094 420.925781 L 95.496094 424.09375 C 95.496094 444.214844 111.410156 460.621094 131.351562 461.441406 L 131.351562 438.683594 C 123.390625 437.714844 117.226562 430.9375 117.226562 422.726562 L 117.226562 421.363281 C 117.226562 411.730469 125.042969 403.921875 134.683594 403.921875 L 148.070312 403.921875 C 148.65625 398.808594 151.203125 393.089844 155.476562 388.191406 C 158.683594 384.515625 162.371094 381.863281 165.992188 380.378906 Z M 165.992188 380.378906 " fill-opacity="1" fill-rule="evenodd"/><path fill="#ffffff" d="M 231.492188 463.277344 C 226.214844 463.277344 223.574219 460.761719 223.574219 455.730469 L 223.574219 353.347656 C 223.574219 348.316406 226.214844 345.800781 231.492188 345.800781 L 259.257812 345.800781 C 270.363281 345.800781 279.949219 349.132812 288.019531 355.800781 C 296.457031 362.832031 300.671875 371.382812 300.671875 381.445312 L 300.671875 427.632812 C 300.671875 432.726562 299.519531 437.484375 297.214844 441.910156 C 294.910156 446.335938 291.84375 450.121094 288.019531 453.273438 C 279.949219 459.941406 270.363281 463.277344 259.257812 463.277344 Z M 237.867188 360.167969 L 237.867188 449 L 259.257812 449 C 266.902344 449 273.457031 446.757812 278.917969 442.273438 C 283.894531 438.152344 286.382812 433.269531 286.382812 427.632812 L 286.382812 381.445312 C 286.382812 375.867188 283.894531 370.988281 278.917969 366.804688 C 273.515625 362.378906 266.964844 360.167969 259.257812 360.167969 Z M 359.933594 410.992188 C 363.9375 410.992188 366.394531 409.449219 367.304688 406.355469 C 367.609375 405.265625 367.761719 401.839844 367.761719 396.082031 C 367.761719 392.019531 366.484375 388.960938 363.9375 386.898438 C 360.902344 384.414062 356.351562 383.171875 350.28125 383.171875 C 344.519531 383.171875 340.027344 384.472656 336.8125 387.082031 C 334.261719 389.140625 332.988281 392.140625 332.988281 396.082031 L 332.988281 410.992188 Z M 318.695312 396.082031 C 318.695312 387.777344 321.761719 381.140625 327.890625 376.167969 C 333.714844 371.441406 341.179688 369.078125 350.28125 369.078125 C 359.628906 369.078125 367.152344 371.382812 372.859375 375.988281 C 378.925781 380.898438 382.019531 388.382812 382.140625 398.445312 C 382.386719 416.269531 375.316406 425.179688 360.933594 425.179688 L 337.902344 425.179688 C 335.476562 425.179688 333.835938 424.785156 332.988281 423.996094 L 332.988281 439.910156 C 332.988281 443.242188 334.71875 445.910156 338.175781 447.910156 C 340.785156 449.488281 344.003906 450.457031 347.824219 450.820312 C 351.222656 451.0625 354.683594 450.789062 358.203125 450 C 360.871094 449.394531 363.117188 448.425781 364.9375 447.09375 C 365.605469 446.605469 366.210938 446.03125 366.757812 445.363281 C 369.003906 442.878906 371.855469 442.484375 375.316406 444.183594 L 382.234375 447.546875 C 380.957031 450.515625 379.199219 453.152344 376.953125 455.457031 C 373.738281 458.671875 369.671875 461.09375 364.757812 462.730469 C 360.265625 464.246094 355.59375 465.003906 350.738281 465.003906 C 346.734375 465.003906 343.03125 464.609375 339.632812 463.820312 C 335.75 462.914062 332.320312 461.457031 329.347656 459.457031 C 325.828125 457.152344 323.15625 454.003906 321.335938 450 C 319.578125 446.183594 318.695312 442.0625 318.695312 437.636719 Z M 397.160156 352.984375 C 397.160156 347.953125 399.800781 345.4375 405.082031 345.4375 L 411.453125 345.4375 L 411.453125 374.714844 C 417.519531 370.957031 424.226562 369.078125 431.570312 369.078125 C 440.613281 369.078125 448.5625 371.867188 455.417969 377.441406 C 462.457031 383.199219 465.976562 390.324219 465.976562 398.808594 L 465.976562 435.273438 C 465.976562 443.757812 462.457031 450.910156 455.417969 456.730469 C 448.683594 462.246094 440.734375 465.003906 431.570312 465.003906 C 422.34375 465.003906 414.425781 462.246094 407.8125 456.730469 C 400.710938 450.851562 397.160156 443.699219 397.160156 435.273438 Z M 411.453125 435.273438 C 411.453125 439.332031 413.273438 442.847656 416.914062 445.820312 C 420.917969 449.152344 425.804688 450.820312 431.570312 450.820312 C 437.335938 450.820312 442.25 449.152344 446.316406 445.820312 C 449.894531 442.847656 451.6875 439.332031 451.6875 435.273438 L 451.6875 398.808594 C 451.6875 394.75 449.894531 391.261719 446.316406 388.355469 C 442.25 385.019531 437.335938 383.351562 431.570312 383.351562 C 425.804688 383.351562 420.917969 385.019531 416.914062 388.355469 C 413.273438 391.261719 411.453125 394.75 411.453125 398.808594 Z M 483.273438 378.714844 C 483.273438 373.683594 485.914062 371.167969 491.191406 371.167969 L 497.5625 371.167969 L 497.5625 436.542969 C 497.5625 440.242188 499.203125 443.457031 502.480469 446.183594 C 506.242188 449.273438 510.792969 450.820312 516.132812 450.820312 C 521.414062 450.820312 525.964844 449.273438 529.785156 446.183594 C 533.0625 443.515625 534.703125 440.304688 534.703125 436.542969 L 534.703125 378.714844 C 534.703125 373.683594 537.34375 371.167969 542.621094 371.167969 L 549.085938 371.167969 L 549.085938 436.542969 C 549.085938 444.605469 545.6875 451.488281 538.890625 457.183594 C 532.640625 462.398438 525.054688 465.003906 516.132812 465.003906 C 507.332031 465.003906 499.777344 462.398438 493.46875 457.183594 C 486.671875 451.546875 483.273438 444.667969 483.273438 436.542969 Z M 600.878906 369.441406 C 609.980469 369.441406 617.929688 372.230469 624.726562 377.804688 C 631.765625 383.625 635.285156 390.777344 635.285156 399.265625 L 635.285156 462.640625 C 635.285156 467.066406 634.40625 471.035156 632.648438 474.550781 C 630.886719 478.128906 628.367188 481.070312 625.09375 483.371094 C 621.753906 485.734375 618.265625 487.464844 614.625 488.554688 C 606.128906 491.039062 597.421875 491.191406 588.5 489.007812 C 583.523438 487.734375 579.304688 485.675781 575.847656 482.824219 C 574.9375 482.039062 574.148438 481.28125 573.480469 480.550781 L 580.851562 474.550781 C 582.976562 472.792969 585.34375 472.582031 587.953125 473.914062 C 594.082031 477.066406 601.667969 477.402344 610.710938 474.914062 C 617.566406 472.976562 620.996094 468.882812 620.996094 462.640625 L 620.996094 459.914062 C 615.046875 463.671875 608.34375 465.550781 600.878906 465.550781 C 591.65625 465.550781 583.703125 462.761719 577.03125 457.183594 C 569.988281 451.367188 566.46875 444.242188 566.46875 435.816406 L 566.46875 399.265625 C 566.46875 390.839844 569.988281 383.6875 577.03125 377.804688 C 583.765625 372.230469 591.714844 369.441406 600.878906 369.441406 Z M 615.625 388.71875 C 611.558594 385.382812 606.644531 383.714844 600.878906 383.714844 C 595.113281 383.714844 590.226562 385.382812 586.222656 388.71875 C 582.582031 391.746094 580.761719 395.265625 580.761719 399.265625 L 580.761719 435.816406 C 580.761719 439.816406 582.582031 443.304688 586.222656 446.273438 C 590.226562 449.605469 595.113281 451.273438 600.878906 451.273438 C 606.644531 451.273438 611.558594 449.605469 615.625 446.273438 C 619.203125 443.363281 620.996094 439.878906 620.996094 435.816406 L 620.996094 399.265625 C 620.996094 395.265625 619.203125 391.746094 615.625 388.71875 Z M 615.625 388.71875 " fill-opacity="1" fill-rule="nonzero"/><g clip-path="url(#bbe910f609)"><g clip-path="url(#0fcfb4701f)"><path fill="url(#16faf418e3)" d="M 657.226562 318.046875 L 657.226562 465.117188 L 998.273438 465.117188 L 998.273438 318.046875 Z M 657.226562 318.046875 " fill-rule="nonzero"/></g></g><g clip-path="url(#ee8fbfa4cd)"><g clip-path="url(#ddf4cf7790)"><path stroke-linecap="butt" transform="matrix(0.947505, 0, 0, 0.947505, 1328.009939, 352.40171)" fill="none" stroke-linejoin="miter" d="M 19.514468 0.000668576 C 8.737812 0.000668576 0.00187792 8.736603 0.00187792 19.517381 C 0.00187792 30.294037 8.737812 39.029971 19.514468 39.029971 C 30.295246 39.029971 39.031181 30.294037 39.031181 19.517381 C 39.031181 8.736603 30.295246 0.000668576 19.514468 0.000668576 Z M 19.514468 0.000668576 " stroke="#ffffff" stroke-width="4.749314" stroke-opacity="1" stroke-miterlimit="4"/></g></g><g fill="#ffffff" fill-opacity="1"><g transform="translate(1336.044203, 375.919429)"><g><path d="M 7.90625 -9.875 L 7.90625 -8.234375 L 5.0625 -8.234375 L 5.0625 0 L 3.125 0 L 3.125 -8.234375 L 0.265625 -8.234375 L 0.265625 -9.875 Z M 7.90625 -9.875 "/></g></g></g><g fill="#ffffff" fill-opacity="1"><g transform="translate(1344.224424, 375.919429)"><g><path d="M 3.078125 0 L 1.28125 0 L 1.28125 -9.875 L 3.828125 -9.875 L 6.328125 -2.609375 L 6.46875 -2.609375 L 8.953125 -9.875 L 11.453125 -9.875 L 11.453125 0 L 9.59375 0 L 9.59375 -6.515625 L 9.4375 -6.546875 L 7.15625 0 L 5.515625 0 L 3.234375 -6.546875 L 3.078125 -6.515625 Z M 3.078125 0 "/></g></g></g><path stroke-linecap="butt" transform="matrix(1.449609, 0, 0, 1.449609, 1037.782106, 288.466148)" fill="none" stroke-linejoin="miter" d="M 20.912917 48.075108 C 20.912917 44.889981 22.583627 43.297418 25.922351 43.297418 L 29.950916 43.297418 L 29.950916 103.801347 C 29.950916 108.177528 28.051158 111.880035 24.251641 114.911564 C 20.75932 117.638593 16.633746 118.999413 11.874919 118.999413 C 9.341908 118.999413 6.884349 118.557483 4.504935 117.676319 C 3.009381 117.13738 2.012345 116.293941 1.511132 115.143308 C 0.974888 113.952254 1.225495 112.704611 2.260256 111.40038 L 5.081599 107.832607 C 6.924769 109.25271 9.188311 109.961414 11.874919 109.961414 C 14.561527 109.961414 16.825069 109.25271 18.668239 107.832607 C 20.163793 106.603827 20.912917 105.259176 20.912917 103.801347 Z M 20.912917 48.075108 " stroke="#ffffff" stroke-width="1.621207" stroke-opacity="1" stroke-miterlimit="4"/><path stroke-linecap="butt" transform="matrix(1.449609, 0, 0, 1.449609, 1037.782106, 288.466148)" fill="none" stroke-linejoin="miter" d="M 101.27673 48.075108 C 101.27673 44.889981 102.947439 43.297418 106.286163 43.297418 L 110.314728 43.297418 L 110.314728 61.834207 C 114.154665 59.454794 118.393416 58.266435 123.039066 58.266435 C 128.757203 58.266435 133.785499 60.031458 138.121259 63.561505 C 142.572891 67.207424 144.798707 71.718339 144.798707 77.091556 L 144.798707 100.174291 C 144.798707 105.547508 142.572891 110.077286 138.121259 113.76093 C 133.86095 117.253252 128.832654 118.999413 123.039066 118.999413 C 117.205056 118.999413 112.195623 117.253252 108.013461 113.76093 C 103.521408 110.03956 101.27673 105.509782 101.27673 100.174291 Z M 110.314728 100.174291 C 110.314728 102.747722 111.468056 104.973538 113.769324 106.851739 C 116.302335 108.964378 119.393147 110.018003 123.039066 110.018003 C 126.684984 110.018003 129.791965 108.964378 132.365396 106.851739 C 134.628938 104.973538 135.760709 102.747722 135.760709 100.174291 L 135.760709 77.091556 C 135.760709 74.518125 134.628938 72.311172 132.365396 70.470697 C 129.791965 68.358058 126.684984 67.304433 123.039066 67.304433 C 119.393147 67.304433 116.302335 68.358058 113.769324 70.470697 C 111.468056 72.311172 110.314728 74.518125 110.314728 77.091556 Z M 153.429807 72.082123 C 154.160068 67.476893 156.404747 63.965709 160.166538 61.545875 C 163.580713 59.36048 167.975756 58.266435 173.348973 58.266435 C 179.449757 58.266435 184.402601 59.724263 188.202118 62.63992 C 190.465659 64.367218 192.192957 66.555309 193.381317 69.204191 L 189.180291 71.27641 C 187.490719 72.157574 186.089479 72.292309 184.976571 71.677919 C 184.785248 71.602467 184.305593 71.160538 183.537605 70.354825 C 183.308556 70.125776 183.05795 69.894032 182.791175 69.664984 C 180.603085 68.013137 177.455684 67.188561 173.348973 67.188561 C 166.517928 67.188561 162.793863 69.530249 162.179473 74.21093 C 161.796827 77.35833 162.775 79.81589 165.116688 81.580913 C 167.035309 83.001016 169.643771 83.863318 172.944769 84.170513 C 177.744016 84.631305 181.389935 85.38043 183.882526 86.415192 C 187.528445 87.951166 190.215053 90.50304 191.942351 94.073508 C 193.556472 97.487683 194.036127 101.192885 193.381317 105.183724 C 192.65375 109.751228 190.409071 113.243549 186.64728 115.660689 C 183.23041 117.886505 178.856924 118.999413 173.521433 118.999413 C 167.417955 118.999413 162.448942 117.541584 158.6117 114.625927 C 156.345464 112.898629 154.620861 110.710539 153.429807 108.061656 L 157.633527 105.932849 C 159.360825 105.086716 160.75937 104.951981 161.834552 105.528645 C 162.025876 105.644517 162.505531 106.086446 163.273518 106.851739 C 163.542987 107.121208 163.793594 107.352952 164.022643 107.544275 C 166.210733 109.193427 169.376997 110.018003 173.521433 110.018003 C 180.314753 110.018003 184.01726 107.697872 184.63165 103.052223 C 185.016991 99.867096 184.036123 97.393369 181.69713 95.628345 C 179.775815 94.245968 177.167352 93.402529 173.866354 93.095334 C 169.069802 92.594121 165.423883 91.828829 162.928598 90.791372 C 159.282679 89.255398 156.614933 86.722387 154.928056 83.19234 C 153.276209 79.77547 152.777691 76.072962 153.429807 72.082123 Z M 153.429807 72.082123 " stroke="#ffffff" stroke-width="1.621207" stroke-opacity="1" stroke-miterlimit="4"/><g fill="#ffffff" fill-opacity="1"><g transform="translate(1037.804756, 460.969602)"><g><path d="M 30.296875 -102.8125 C 30.296875 -107.425781 32.710938 -109.734375 37.546875 -109.734375 L 43.390625 -109.734375 L 43.390625 -22.03125 C 43.390625 -15.6875 40.632812 -10.316406 35.125 -5.921875 C 30.0625 -1.972656 24.082031 0 17.1875 0 C 13.519531 0 9.960938 -0.640625 6.515625 -1.921875 C 4.335938 -2.703125 2.890625 -3.925781 2.171875 -5.59375 C 1.390625 -7.3125 1.75 -9.117188 3.25 -11.015625 L 7.34375 -16.1875 C 10.007812 -14.132812 13.289062 -13.109375 17.1875 -13.109375 C 21.082031 -13.109375 24.363281 -14.132812 27.03125 -16.1875 C 29.207031 -17.96875 30.296875 -19.914062 30.296875 -22.03125 Z M 30.296875 -102.8125 "/></g></g></g><g fill="#ffffff" fill-opacity="1"><g transform="translate(1092.550141, 460.969602)"><g/></g></g><g fill="#ffffff" fill-opacity="1"><g transform="translate(1134.439514, 460.969602)"><g/></g></g><g fill="#ffffff" fill-opacity="1"><g transform="translate(1176.333002, 460.969602)"><g><path d="M 8.265625 -102.8125 C 8.265625 -107.425781 10.679688 -109.734375 15.515625 -109.734375 L 21.359375 -109.734375 L 21.359375 -82.859375 C 26.921875 -86.316406 33.070312 -88.046875 39.8125 -88.046875 C 48.09375 -88.046875 55.378906 -85.484375 61.671875 -80.359375 C 68.117188 -75.078125 71.34375 -68.539062 71.34375 -60.75 L 71.34375 -27.28125 C 71.34375 -19.5 68.117188 -12.9375 61.671875 -7.59375 C 55.492188 -2.53125 48.207031 0 39.8125 0 C 31.351562 0 24.09375 -2.53125 18.03125 -7.59375 C 11.519531 -12.988281 8.265625 -19.550781 8.265625 -27.28125 Z M 21.359375 -27.28125 C 21.359375 -23.5625 23.03125 -20.335938 26.375 -17.609375 C 30.039062 -14.546875 34.519531 -13.015625 39.8125 -13.015625 C 45.09375 -13.015625 49.597656 -14.546875 53.328125 -17.609375 C 56.609375 -20.335938 58.25 -23.5625 58.25 -27.28125 L 58.25 -60.75 C 58.25 -64.476562 56.609375 -67.675781 53.328125 -70.34375 C 49.597656 -73.40625 45.09375 -74.9375 39.8125 -74.9375 C 34.519531 -74.9375 30.039062 -73.40625 26.375 -70.34375 C 23.03125 -67.675781 21.359375 -64.476562 21.359375 -60.75 Z M 21.359375 -27.28125 "/></g></g></g><g fill="#ffffff" fill-opacity="1"><g transform="translate(1255.271943, 460.969602)"><g><path d="M 4.921875 -68.015625 C 5.984375 -74.691406 9.238281 -79.78125 14.6875 -83.28125 C 19.632812 -86.457031 26.003906 -88.046875 33.796875 -88.046875 C 42.640625 -88.046875 49.816406 -85.929688 55.328125 -81.703125 C 58.609375 -79.191406 61.113281 -76.019531 62.84375 -72.1875 L 56.75 -69.1875 C 54.300781 -67.90625 52.269531 -67.707031 50.65625 -68.59375 C 50.375 -68.707031 49.675781 -69.347656 48.5625 -70.515625 C 48.226562 -70.847656 47.867188 -71.179688 47.484375 -71.515625 C 44.316406 -73.910156 39.753906 -75.109375 33.796875 -75.109375 C 23.890625 -75.109375 18.492188 -71.710938 17.609375 -64.921875 C 17.054688 -60.359375 18.472656 -56.800781 21.859375 -54.25 C 24.640625 -52.1875 28.425781 -50.929688 33.21875 -50.484375 C 40.164062 -49.816406 45.445312 -48.734375 49.0625 -47.234375 C 54.351562 -45.003906 58.25 -41.304688 60.75 -36.140625 C 63.082031 -31.179688 63.78125 -25.8125 62.84375 -20.03125 C 61.78125 -13.40625 58.523438 -8.34375 53.078125 -4.84375 C 48.117188 -1.613281 41.773438 0 34.046875 0 C 25.203125 0 18 -2.113281 12.4375 -6.34375 C 9.15625 -8.84375 6.648438 -12.015625 4.921875 -15.859375 L 11.015625 -18.9375 C 13.515625 -20.164062 15.546875 -20.363281 17.109375 -19.53125 C 17.390625 -19.363281 18.082031 -18.722656 19.1875 -17.609375 C 19.582031 -17.222656 19.945312 -16.890625 20.28125 -16.609375 C 23.445312 -14.210938 28.035156 -13.015625 34.046875 -13.015625 C 43.890625 -13.015625 49.257812 -16.378906 50.15625 -23.109375 C 50.707031 -27.734375 49.285156 -31.320312 45.890625 -33.875 C 43.109375 -35.882812 39.328125 -37.109375 34.546875 -37.546875 C 27.585938 -38.273438 22.300781 -39.390625 18.6875 -40.890625 C 13.40625 -43.117188 9.539062 -46.789062 7.09375 -51.90625 C 4.695312 -56.851562 3.972656 -62.222656 4.921875 -68.015625 Z M 4.921875 -68.015625 "/></g></g></g><g clip-path="url(#78d436e2e1)"><path fill="#ffffff" d="M 1199.1875 474.359375 L 1168.878906 444.050781 L 1166.125 446.804688 L 1159.71875 440.394531 C 1165.128906 433.835938 1168.382812 425.433594 1168.382812 416.289062 C 1168.382812 395.359375 1151.359375 378.335938 1130.429688 378.335938 C 1109.503906 378.335938 1092.480469 395.363281 1092.480469 416.289062 C 1092.480469 437.214844 1109.503906 454.238281 1130.429688 454.238281 C 1139.414062 454.238281 1147.671875 451.097656 1154.175781 445.863281 L 1160.625 452.308594 L 1157.871094 455.0625 L 1188.175781 485.367188 C 1189.695312 486.886719 1191.691406 487.648438 1193.683594 487.648438 C 1195.675781 487.648438 1197.664062 486.886719 1199.1875 485.367188 C 1202.226562 482.328125 1202.226562 477.398438 1199.1875 474.359375 Z M 1100.265625 416.285156 C 1100.265625 399.652344 1113.796875 386.121094 1130.429688 386.121094 C 1147.066406 386.121094 1160.597656 399.652344 1160.597656 416.285156 C 1160.597656 432.921875 1147.066406 446.453125 1130.429688 446.453125 C 1113.796875 446.453125 1100.265625 432.921875 1100.265625 416.285156 Z M 1100.265625 416.285156 " fill-opacity="1" fill-rule="nonzero"/></g><path fill="#ffffff" d="M 1144.457031 402.171875 C 1151.722656 409.433594 1154.980469 418.945312 1153.953125 427.367188 C 1155.304688 424.195312 1156.054688 420.699219 1156.054688 417.03125 C 1156.054688 402.464844 1144.25 390.660156 1129.683594 390.660156 C 1126.144531 390.660156 1122.773438 391.363281 1119.6875 392.625 C 1128.007812 391.757812 1137.320312 395.035156 1144.457031 402.171875 Z M 1144.457031 402.171875 " fill-opacity="1" fill-rule="nonzero"/><g clip-path="url(#4c366430c9)"><g clip-path="url(#355ebd1d5e)"><g clip-path="url(#2805ef06b9)"><path fill="#ffffff" d="M 1168.398438 443.464844 L 1188.847656 462.65625 L 1177.953125 474.261719 L 1157.503906 455.070312 Z M 1168.398438 443.464844 " fill-opacity="1" fill-rule="nonzero"/></g></g></g><g clip-path="url(#8873d33eb5)"><g clip-path="url(#cfb002385d)"><path fill="url(#6fe25759f2)" d="M 1103.472656 388.753906 L 1103.472656 442.789062 L 1157.507812 442.789062 L 1157.507812 388.753906 Z M 1103.472656 388.753906 " fill-rule="nonzero"/></g></g><g clip-path="url(#d36d33fbbd)"><path fill="#ffffff" d="M 1138.628906 408.476562 C 1138.628906 409.011719 1138.578125 409.539062 1138.476562 410.0625 C 1138.371094 410.585938 1138.21875 411.09375 1138.015625 411.585938 C 1137.8125 412.078125 1137.566406 412.542969 1137.273438 412.988281 C 1136.976562 413.429688 1136.644531 413.839844 1136.269531 414.21875 C 1135.894531 414.59375 1135.488281 414.929688 1135.046875 415.226562 C 1134.609375 415.523438 1134.144531 415.773438 1133.65625 415.976562 C 1133.167969 416.179688 1132.664062 416.335938 1132.144531 416.441406 C 1131.625 416.542969 1131.101562 416.59375 1130.570312 416.59375 C 1130.042969 416.59375 1129.519531 416.542969 1129 416.441406 C 1128.480469 416.335938 1127.976562 416.179688 1127.488281 415.976562 C 1127 415.773438 1126.535156 415.523438 1126.09375 415.226562 C 1125.652344 414.929688 1125.246094 414.59375 1124.871094 414.21875 C 1124.5 413.839844 1124.164062 413.429688 1123.871094 412.988281 C 1123.578125 412.542969 1123.328125 412.078125 1123.125 411.585938 C 1122.921875 411.09375 1122.769531 410.585938 1122.667969 410.0625 C 1122.5625 409.539062 1122.511719 409.011719 1122.511719 408.476562 C 1122.511719 407.945312 1122.5625 407.417969 1122.667969 406.894531 C 1122.769531 406.371094 1122.921875 405.863281 1123.125 405.371094 C 1123.328125 404.878906 1123.578125 404.410156 1123.871094 403.96875 C 1124.164062 403.523438 1124.5 403.113281 1124.871094 402.738281 C 1125.246094 402.359375 1125.652344 402.023438 1126.09375 401.726562 C 1126.535156 401.433594 1127 401.183594 1127.488281 400.976562 C 1127.976562 400.773438 1128.480469 400.621094 1129 400.515625 C 1129.519531 400.414062 1130.042969 400.359375 1130.570312 400.359375 C 1131.101562 400.359375 1131.625 400.414062 1132.144531 400.515625 C 1132.664062 400.621094 1133.167969 400.773438 1133.65625 400.976562 C 1134.144531 401.183594 1134.609375 401.433594 1135.046875 401.726562 C 1135.488281 402.023438 1135.894531 402.359375 1136.269531 402.738281 C 1136.644531 403.113281 1136.976562 403.523438 1137.273438 403.96875 C 1137.566406 404.410156 1137.8125 404.878906 1138.015625 405.371094 C 1138.21875 405.863281 1138.371094 406.371094 1138.476562 406.894531 C 1138.578125 407.417969 1138.628906 407.945312 1138.628906 408.476562 Z M 1138.628906 408.476562 " fill-opacity="1" fill-rule="nonzero"/></g><g clip-path="url(#046fa8669f)"><path fill="#ffffff" d="M 1119.675781 425.3125 C 1119.558594 422.066406 1125.199219 419.953125 1128.035156 419.300781 C 1129.824219 419.300781 1129.675781 420.402344 1129.378906 420.953125 L 1127.734375 425.613281 C 1128.570312 427.660156 1130.171875 428.171875 1130.871094 428.171875 C 1132.183594 428.171875 1133.207031 426.265625 1133.554688 425.3125 L 1132.363281 422.457031 C 1131.464844 420.355469 1131.714844 419.601562 1132.363281 419.300781 C 1134.625 418.25 1141.464844 422.910156 1141.464844 425.3125 C 1135.496094 436.738281 1119.828125 429.375 1119.675781 425.3125 Z M 1119.675781 425.3125 " fill-opacity="1" fill-rule="nonzero"/></g></svg>