<svg xmlns="http://www.w3.org/2000/svg" xmlns:xlink="http://www.w3.org/1999/xlink" width="1920" zoomAndPan="magnify" viewBox="0 0 1440 809.999993" height="1080" preserveAspectRatio="xMidYMid meet" version="1.0"><defs><g/><clipPath id="ca622f87e5"><path d="M 75 271.285156 L 333 271.285156 L 333 538.484375 L 75 538.484375 Z M 75 271.285156 " clip-rule="nonzero"/></clipPath><linearGradient x1="10.085478" gradientTransform="matrix(1, 0, 0, 1, 0.000000470131, -0.00000124096)" y1="15.336895" x2="16.400509" gradientUnits="userSpaceOnUse" y2="30.262838" id="6032524196"><stop stop-opacity="1" stop-color="rgb(3.49884%, 66.299438%, 68.998718%)" offset="0"/><stop stop-opacity="1" stop-color="rgb(3.49884%, 66.299438%, 68.998718%)" offset="0.25"/><stop stop-opacity="1" stop-color="rgb(3.536987%, 66.130066%, 69.166565%)" offset="0.265625"/><stop stop-opacity="1" stop-color="rgb(3.611755%, 65.791321%, 69.50531%)" offset="0.273438"/><stop stop-opacity="1" stop-color="rgb(3.688049%, 65.452576%, 69.845581%)" offset="0.28125"/><stop stop-opacity="1" stop-color="rgb(3.764343%, 65.112305%, 70.184326%)" offset="0.289063"/><stop stop-opacity="1" stop-color="rgb(3.840637%, 64.77356%, 70.524597%)" offset="0.296875"/><stop stop-opacity="1" stop-color="rgb(3.916931%, 64.433289%, 70.864868%)" offset="0.304688"/><stop stop-opacity="1" stop-color="rgb(3.991699%, 64.093018%, 71.203613%)" offset="0.31039"/><stop stop-opacity="1" stop-color="rgb(4.029846%, 63.923645%, 71.374512%)" offset="0.3125"/><stop stop-opacity="1" stop-color="rgb(4.067993%, 63.754272%, 71.543884%)" offset="0.320312"/><stop stop-opacity="1" stop-color="rgb(4.144287%, 63.414001%, 71.884155%)" offset="0.328125"/><stop stop-opacity="1" stop-color="rgb(4.220581%, 63.07373%, 72.2229%)" offset="0.335938"/><stop stop-opacity="1" stop-color="rgb(4.295349%, 62.734985%, 72.563171%)" offset="0.34375"/><stop stop-opacity="1" stop-color="rgb(4.371643%, 62.394714%, 72.903442%)" offset="0.351563"/><stop stop-opacity="1" stop-color="rgb(4.447937%, 62.054443%, 73.242188%)" offset="0.359375"/><stop stop-opacity="1" stop-color="rgb(4.524231%, 61.715698%, 73.582458%)" offset="0.367188"/><stop stop-opacity="1" stop-color="rgb(4.600525%, 61.375427%, 73.922729%)" offset="0.375"/><stop stop-opacity="1" stop-color="rgb(4.675293%, 61.035156%, 74.261475%)" offset="0.382813"/><stop stop-opacity="1" stop-color="rgb(4.751587%, 60.696411%, 74.601746%)" offset="0.390625"/><stop stop-opacity="1" stop-color="rgb(4.827881%, 60.35614%, 74.940491%)" offset="0.398438"/><stop stop-opacity="1" stop-color="rgb(4.904175%, 60.015869%, 75.280762%)" offset="0.40625"/><stop stop-opacity="1" stop-color="rgb(4.980469%, 59.677124%, 75.621033%)" offset="0.414063"/><stop stop-opacity="1" stop-color="rgb(5.055237%, 59.336853%, 75.959778%)" offset="0.421875"/><stop stop-opacity="1" stop-color="rgb(5.131531%, 58.996582%, 76.300049%)" offset="0.429688"/><stop stop-opacity="1" stop-color="rgb(5.207825%, 58.657837%, 76.64032%)" offset="0.4375"/><stop stop-opacity="1" stop-color="rgb(5.284119%, 58.317566%, 76.979065%)" offset="0.445313"/><stop stop-opacity="1" stop-color="rgb(5.358887%, 57.977295%, 77.319336%)" offset="0.453125"/><stop stop-opacity="1" stop-color="rgb(5.435181%, 57.63855%, 77.659607%)" offset="0.460938"/><stop stop-opacity="1" stop-color="rgb(5.511475%, 57.298279%, 77.998352%)" offset="0.46875"/><stop stop-opacity="1" stop-color="rgb(5.587769%, 56.959534%, 78.338623%)" offset="0.476562"/><stop stop-opacity="1" stop-color="rgb(5.664062%, 56.619263%, 78.678894%)" offset="0.484375"/><stop stop-opacity="1" stop-color="rgb(5.738831%, 56.278992%, 79.017639%)" offset="0.492188"/><stop stop-opacity="1" stop-color="rgb(5.815125%, 55.940247%, 79.35791%)" offset="0.5"/><stop stop-opacity="1" stop-color="rgb(5.891418%, 55.599976%, 79.698181%)" offset="0.507813"/><stop stop-opacity="1" stop-color="rgb(5.967712%, 55.259705%, 80.036926%)" offset="0.515625"/><stop stop-opacity="1" stop-color="rgb(6.044006%, 54.920959%, 80.377197%)" offset="0.523438"/><stop stop-opacity="1" stop-color="rgb(6.118774%, 54.580688%, 80.717468%)" offset="0.53125"/><stop stop-opacity="1" stop-color="rgb(6.195068%, 54.240417%, 81.056213%)" offset="0.539062"/><stop stop-opacity="1" stop-color="rgb(6.271362%, 53.901672%, 81.396484%)" offset="0.546875"/><stop stop-opacity="1" stop-color="rgb(6.347656%, 53.561401%, 81.736755%)" offset="0.554688"/><stop stop-opacity="1" stop-color="rgb(6.422424%, 53.22113%, 82.0755%)" offset="0.5625"/><stop stop-opacity="1" stop-color="rgb(6.498718%, 52.882385%, 82.415771%)" offset="0.570312"/><stop stop-opacity="1" stop-color="rgb(6.575012%, 52.542114%, 82.754517%)" offset="0.578125"/><stop stop-opacity="1" stop-color="rgb(6.651306%, 52.201843%, 83.094788%)" offset="0.585938"/><stop stop-opacity="1" stop-color="rgb(6.7276%, 51.863098%, 83.435059%)" offset="0.59375"/><stop stop-opacity="1" stop-color="rgb(6.802368%, 51.522827%, 83.773804%)" offset="0.601563"/><stop stop-opacity="1" stop-color="rgb(6.878662%, 51.182556%, 84.114075%)" offset="0.609375"/><stop stop-opacity="1" stop-color="rgb(6.954956%, 50.843811%, 84.454346%)" offset="0.617188"/><stop stop-opacity="1" stop-color="rgb(7.03125%, 50.50354%, 84.793091%)" offset="0.625"/><stop stop-opacity="1" stop-color="rgb(7.084656%, 50.267029%, 85.031128%)" offset="0.68961"/><stop stop-opacity="1" stop-color="rgb(7.099915%, 50.19989%, 85.099792%)" offset="0.75"/><stop stop-opacity="1" stop-color="rgb(7.099915%, 50.19989%, 85.099792%)" offset="1"/></linearGradient><clipPath id="4ddeb1096f"><path d="M 657 318 L 999 318 L 999 466 L 657 466 Z M 657 318 " clip-rule="nonzero"/></clipPath><clipPath id="5ee58690a6"><path d="M 892.097656 464.152344 L 876.433594 446.863281 L 876.433594 359.421875 C 876.433594 354.785156 876.316406 350.347656 876.085938 346.105469 C 875.851562 342.53125 875.503906 338.953125 875.042969 335.375 C 874.574219 331.796875 873.9375 328.949219 873.121094 326.828125 C 872.660156 325.769531 872.199219 324.910156 871.730469 324.246094 C 871.382812 323.582031 871.035156 322.988281 870.6875 322.457031 C 870.222656 321.925781 869.875 321.398438 869.644531 320.867188 L 870.863281 318.085938 C 872.601562 318.878906 874.460938 319.941406 876.433594 321.265625 C 878.054688 322.457031 879.792969 323.980469 881.652344 325.835938 C 883.511719 327.691406 885.25 330.140625 886.875 333.1875 C 888.734375 337.03125 890.011719 341.003906 890.707031 345.113281 C 891.519531 349.085938 891.980469 353.855469 892.097656 359.421875 Z M 833.898438 383.863281 C 836.6875 384.792969 839.355469 386.050781 841.90625 387.640625 C 844.460938 389.097656 846.667969 390.820312 848.519531 392.808594 C 850.492188 394.664062 852.003906 396.714844 853.046875 398.96875 C 854.210938 401.222656 854.789062 403.472656 854.789062 405.726562 L 854.789062 464.351562 L 840.863281 452.027344 C 838.773438 454.414062 836.042969 456.601562 832.683594 458.585938 C 829.320312 460.574219 825.664062 462.164062 821.71875 463.355469 C 817.773438 464.417969 813.65625 465.011719 809.355469 465.144531 C 805.179688 465.277344 801.179688 464.75 797.347656 463.554688 C 793.519531 462.363281 790.035156 460.441406 786.90625 457.792969 C 783.769531 455.144531 781.335938 451.632812 779.59375 447.261719 C 777.621094 442.621094 776.984375 437.984375 777.679688 433.347656 C 778.488281 428.710938 780.175781 424.539062 782.726562 420.828125 C 785.394531 416.988281 788.820312 413.875 792.996094 411.488281 C 797.289062 408.972656 801.929688 407.582031 806.921875 407.316406 C 812.03125 406.917969 817.304688 407.84375 822.761719 410.097656 C 828.328125 412.21875 833.785156 415.992188 839.121094 421.425781 L 839.121094 405.925781 C 839.121094 402.082031 837.269531 399.167969 833.550781 397.179688 C 829.953125 395.058594 825.546875 394.53125 820.328125 395.589844 C 816.609375 396.253906 813.65625 396.847656 811.449219 397.378906 C 809.242188 397.910156 807.15625 398.570312 805.179688 399.367188 C 803.207031 400.027344 801.058594 400.890625 798.738281 401.949219 C 796.421875 403.007812 793.285156 404.402344 789.339844 406.121094 L 785.507812 396.1875 C 789.460938 394.332031 793.34375 392.542969 797.175781 390.820312 C 800.539062 389.363281 804.082031 387.90625 807.792969 386.449219 C 811.621094 384.992188 815.097656 383.863281 818.234375 383.070312 C 818.46875 382.9375 818.703125 382.871094 818.929688 382.871094 C 819.277344 382.871094 819.570312 382.804688 819.800781 382.671875 L 819.800781 381.46875 L 770.722656 381.46875 L 770.722656 381.476562 L 757.015625 381.476562 L 757.015625 462.292969 L 740.609375 462.292969 L 740.609375 381.476562 L 722.253906 381.476562 L 722.128906 381.667969 C 723.847656 383.878906 725.148438 386.496094 726.027344 389.519531 C 726.949219 392.496094 727.410156 395.5 727.410156 398.519531 C 727.410156 401.625 726.929688 404.667969 725.964844 407.648438 C 725 410.585938 723.636719 413.394531 721.878906 416.074219 C 720.117188 418.753906 718 421.265625 715.53125 423.605469 C 713.054688 425.90625 710.3125 427.949219 707.292969 429.734375 L 707.292969 430.054688 C 709.265625 431.332031 711.359375 432.96875 713.582031 434.96875 C 715.800781 436.972656 718 439.140625 720.179688 441.480469 C 722.359375 443.78125 724.457031 446.183594 726.46875 448.695312 C 728.476562 451.164062 730.300781 453.527344 731.9375 455.78125 L 720.371094 465.164062 C 718.820312 463.078125 717.015625 460.78125 714.964844 458.269531 C 712.910156 455.757812 710.6875 453.226562 708.300781 450.675781 C 705.953125 448.121094 703.460938 445.652344 700.820312 443.269531 C 698.222656 440.84375 695.582031 438.671875 692.898438 436.757812 C 689.546875 438.035156 686.152344 438.671875 682.714844 438.671875 C 680.074219 438.671875 677.75 438.3125 675.738281 437.589844 C 673.726562 436.820312 672.027344 435.84375 670.648438 434.652344 C 669.304688 433.460938 668.277344 432.121094 667.566406 430.628906 C 666.894531 429.140625 666.558594 427.652344 666.558594 426.160156 C 666.558594 424.839844 666.832031 423.585938 667.378906 422.394531 C 667.921875 421.160156 668.71875 420.074219 669.765625 419.140625 C 670.855469 418.203125 672.21875 417.457031 673.851562 416.90625 C 675.488281 416.308594 677.394531 416.011719 679.574219 416.011719 C 682.085938 416.011719 684.644531 416.394531 687.242188 417.160156 C 689.882812 417.925781 692.332031 419.011719 694.597656 420.414062 C 695.058594 420.289062 695.769531 420.011719 696.734375 419.585938 C 697.738281 419.117188 698.851562 418.480469 700.066406 417.671875 C 701.324219 416.863281 702.601562 415.882812 703.898438 414.734375 C 705.199219 413.542969 706.394531 412.160156 707.484375 410.585938 C 708.574219 409.011719 709.453125 407.222656 710.121094 405.222656 C 710.835938 403.222656 711.191406 400.988281 711.191406 398.519531 C 711.191406 396.347656 710.898438 394.261719 710.3125 392.265625 C 709.726562 390.261719 708.84375 388.496094 707.671875 386.964844 C 706.539062 385.433594 705.136719 384.21875 703.460938 383.324219 C 701.785156 382.390625 699.875 381.921875 697.738281 381.921875 C 696.148438 381.921875 694.804688 382.15625 693.714844 382.625 C 692.667969 383.09375 691.808594 383.710938 691.140625 384.476562 C 690.511719 385.242188 690.050781 386.09375 689.757812 387.027344 C 689.503906 387.964844 689.378906 388.902344 689.378906 389.835938 C 689.378906 392.519531 690.300781 394.582031 692.144531 396.03125 C 694.03125 397.433594 696.734375 398.136719 700.253906 398.136719 L 700.253906 412.5625 C 699.917969 412.605469 699.625 412.628906 699.375 412.628906 L 698.996094 412.628906 C 694.972656 412.628906 691.347656 412.054688 688.121094 410.902344 C 684.894531 409.753906 682.148438 408.203125 679.886719 406.242188 C 677.664062 404.242188 675.949219 401.925781 674.730469 399.285156 C 673.515625 396.648438 672.910156 393.816406 672.910156 390.796875 C 672.910156 387.816406 673.539062 384.753906 674.792969 381.601562 L 674.667969 381.476562 L 657.066406 381.476562 L 657.066406 367.113281 L 858.808594 367.113281 L 864.316406 381.46875 L 833.898438 381.46875 Z M 839.121094 433.347656 C 834.601562 429.375 829.839844 426.460938 824.851562 424.605469 C 819.859375 422.617188 815.21875 421.691406 810.925781 421.824219 C 806.628906 421.953125 802.917969 423.148438 799.78125 425.398438 C 796.652344 427.519531 794.683594 430.699219 793.867188 434.9375 C 792.9375 439.574219 793.171875 443.21875 794.5625 445.867188 C 795.957031 448.519531 797.984375 450.375 800.660156 451.433594 C 803.441406 452.492188 806.628906 452.890625 810.226562 452.625 C 813.941406 452.359375 817.601562 451.632812 821.195312 450.4375 C 824.90625 449.246094 828.328125 447.789062 831.464844 446.066406 C 834.714844 444.34375 837.269531 442.554688 839.121094 440.703125 Z M 971.773438 387.640625 C 969.21875 386.050781 966.550781 384.792969 963.769531 383.863281 L 963.769531 381.46875 L 998.027344 381.46875 L 998.027344 367.113281 L 904.429688 367.113281 L 911.117188 381.46875 L 949.671875 381.46875 L 949.671875 382.671875 C 949.4375 382.804688 949.148438 382.871094 948.800781 382.871094 C 948.566406 382.871094 948.332031 382.9375 948.101562 383.070312 C 944.972656 383.863281 941.488281 384.992188 937.65625 386.449219 C 933.945312 387.90625 930.402344 389.363281 927.039062 390.820312 C 923.210938 392.542969 919.324219 394.332031 915.382812 396.1875 L 919.207031 406.121094 C 923.15625 404.402344 926.285156 403.007812 928.605469 401.949219 C 930.929688 400.890625 933.078125 400.027344 935.050781 399.367188 C 937.023438 398.570312 939.109375 397.910156 941.3125 397.378906 C 943.519531 396.847656 946.476562 396.253906 950.191406 395.589844 C 955.414062 394.53125 959.828125 395.058594 963.421875 397.179688 C 967.132812 399.167969 968.992188 402.082031 968.992188 405.925781 L 968.992188 421.425781 C 963.648438 415.992188 958.203125 412.21875 952.625 410.097656 C 947.175781 407.84375 941.894531 406.917969 936.789062 407.316406 C 931.800781 407.582031 927.15625 408.972656 922.863281 411.488281 C 918.683594 413.875 915.261719 416.988281 912.59375 420.828125 C 910.039062 424.539062 908.363281 428.710938 907.546875 433.347656 C 906.851562 437.984375 907.484375 442.621094 909.457031 447.261719 C 911.203125 451.632812 913.636719 455.144531 916.773438 457.792969 C 919.90625 460.441406 923.382812 462.363281 927.214844 463.554688 C 931.046875 464.75 935.050781 465.277344 939.226562 465.144531 C 943.519531 465.011719 947.636719 464.417969 951.582031 463.355469 C 955.527344 462.164062 959.183594 460.574219 962.546875 458.585938 C 965.917969 456.601562 968.644531 454.414062 970.730469 452.027344 L 984.65625 464.351562 L 984.65625 405.726562 C 984.65625 403.472656 984.074219 401.222656 982.917969 398.96875 C 981.867188 396.714844 980.363281 394.664062 978.390625 392.808594 C 976.535156 390.820312 974.328125 389.097656 971.773438 387.640625 Z M 897.289062 359.421875 L 897.289062 359.804688 L 897.101562 359.421875 Z M 954.71875 424.605469 C 959.707031 426.460938 964.464844 429.375 968.992188 433.347656 L 968.992188 440.703125 C 967.132812 442.554688 964.578125 444.34375 961.332031 446.066406 C 958.203125 447.789062 954.773438 449.246094 951.0625 450.4375 C 947.464844 451.632812 943.808594 452.359375 940.097656 452.625 C 936.5 452.890625 933.304688 452.492188 930.523438 451.433594 C 927.855469 450.375 925.824219 448.519531 924.433594 445.867188 C 923.035156 443.21875 922.808594 439.574219 923.730469 434.9375 C 924.546875 430.699219 926.519531 427.519531 929.65625 425.398438 C 932.785156 423.148438 936.5 421.953125 940.792969 421.824219 C 945.085938 421.691406 949.722656 422.617188 954.71875 424.605469 Z M 954.71875 424.605469 " clip-rule="evenodd"/></clipPath><linearGradient x1="85.074713" gradientTransform="matrix(6.685463, 0, 0, 6.685463, 75.43305, 271.287068)" y1="14.912537" x2="138.281735" gradientUnits="userSpaceOnUse" y2="27.858909" id="7c807a27b2"><stop stop-opacity="1" stop-color="rgb(3.49884%, 66.299438%, 68.998718%)" offset="0"/><stop stop-opacity="1" stop-color="rgb(3.49884%, 66.299438%, 68.998718%)" offset="0.03125"/><stop stop-opacity="1" stop-color="rgb(3.529358%, 66.152954%, 69.142151%)" offset="0.046875"/><stop stop-opacity="1" stop-color="rgb(3.581238%, 65.901184%, 69.390869%)" offset="0.0546875"/><stop stop-opacity="1" stop-color="rgb(3.627014%, 65.687561%, 69.60144%)" offset="0.0625"/><stop stop-opacity="1" stop-color="rgb(3.671265%, 65.473938%, 69.810486%)" offset="0.0703125"/><stop stop-opacity="1" stop-color="rgb(3.715515%, 65.261841%, 70.021057%)" offset="0.078125"/><stop stop-opacity="1" stop-color="rgb(3.759766%, 65.048218%, 70.231628%)" offset="0.0859375"/><stop stop-opacity="1" stop-color="rgb(3.805542%, 64.834595%, 70.440674%)" offset="0.09375"/><stop stop-opacity="1" stop-color="rgb(3.849792%, 64.620972%, 70.651245%)" offset="0.0950571"/><stop stop-opacity="1" stop-color="rgb(3.872681%, 64.515686%, 70.756531%)" offset="0.101563"/><stop stop-opacity="1" stop-color="rgb(3.894043%, 64.408875%, 70.860291%)" offset="0.109375"/><stop stop-opacity="1" stop-color="rgb(3.938293%, 64.195251%, 71.070862%)" offset="0.117188"/><stop stop-opacity="1" stop-color="rgb(3.982544%, 63.981628%, 71.281433%)" offset="0.125"/><stop stop-opacity="1" stop-color="rgb(4.02832%, 63.768005%, 71.490479%)" offset="0.132813"/><stop stop-opacity="1" stop-color="rgb(4.072571%, 63.555908%, 71.70105%)" offset="0.140625"/><stop stop-opacity="1" stop-color="rgb(4.116821%, 63.342285%, 71.910095%)" offset="0.148438"/><stop stop-opacity="1" stop-color="rgb(4.161072%, 63.128662%, 72.120667%)" offset="0.15625"/><stop stop-opacity="1" stop-color="rgb(4.206848%, 62.916565%, 72.331238%)" offset="0.164062"/><stop stop-opacity="1" stop-color="rgb(4.251099%, 62.702942%, 72.540283%)" offset="0.171875"/><stop stop-opacity="1" stop-color="rgb(4.295349%, 62.489319%, 72.750854%)" offset="0.179688"/><stop stop-opacity="1" stop-color="rgb(4.3396%, 62.275696%, 72.9599%)" offset="0.1875"/><stop stop-opacity="1" stop-color="rgb(4.38385%, 62.063599%, 73.170471%)" offset="0.195313"/><stop stop-opacity="1" stop-color="rgb(4.429626%, 61.849976%, 73.381042%)" offset="0.203125"/><stop stop-opacity="1" stop-color="rgb(4.473877%, 61.636353%, 73.590088%)" offset="0.210938"/><stop stop-opacity="1" stop-color="rgb(4.518127%, 61.424255%, 73.800659%)" offset="0.21875"/><stop stop-opacity="1" stop-color="rgb(4.562378%, 61.210632%, 74.009705%)" offset="0.226563"/><stop stop-opacity="1" stop-color="rgb(4.608154%, 60.997009%, 74.220276%)" offset="0.234375"/><stop stop-opacity="1" stop-color="rgb(4.652405%, 60.783386%, 74.430847%)" offset="0.242188"/><stop stop-opacity="1" stop-color="rgb(4.696655%, 60.571289%, 74.639893%)" offset="0.25"/><stop stop-opacity="1" stop-color="rgb(4.740906%, 60.357666%, 74.850464%)" offset="0.257812"/><stop stop-opacity="1" stop-color="rgb(4.785156%, 60.144043%, 75.059509%)" offset="0.265625"/><stop stop-opacity="1" stop-color="rgb(4.830933%, 59.93042%, 75.270081%)" offset="0.273438"/><stop stop-opacity="1" stop-color="rgb(4.875183%, 59.718323%, 75.480652%)" offset="0.28125"/><stop stop-opacity="1" stop-color="rgb(4.919434%, 59.5047%, 75.689697%)" offset="0.289063"/><stop stop-opacity="1" stop-color="rgb(4.963684%, 59.291077%, 75.900269%)" offset="0.296875"/><stop stop-opacity="1" stop-color="rgb(5.007935%, 59.078979%, 76.109314%)" offset="0.304688"/><stop stop-opacity="1" stop-color="rgb(5.053711%, 58.865356%, 76.319885%)" offset="0.3125"/><stop stop-opacity="1" stop-color="rgb(5.097961%, 58.651733%, 76.528931%)" offset="0.320313"/><stop stop-opacity="1" stop-color="rgb(5.142212%, 58.43811%, 76.739502%)" offset="0.328125"/><stop stop-opacity="1" stop-color="rgb(5.186462%, 58.226013%, 76.950073%)" offset="0.335938"/><stop stop-opacity="1" stop-color="rgb(5.232239%, 58.01239%, 77.159119%)" offset="0.34375"/><stop stop-opacity="1" stop-color="rgb(5.276489%, 57.798767%, 77.36969%)" offset="0.351563"/><stop stop-opacity="1" stop-color="rgb(5.32074%, 57.58667%, 77.578735%)" offset="0.359375"/><stop stop-opacity="1" stop-color="rgb(5.36499%, 57.373047%, 77.789307%)" offset="0.367188"/><stop stop-opacity="1" stop-color="rgb(5.409241%, 57.159424%, 77.999878%)" offset="0.375"/><stop stop-opacity="1" stop-color="rgb(5.455017%, 56.945801%, 78.208923%)" offset="0.382813"/><stop stop-opacity="1" stop-color="rgb(5.499268%, 56.733704%, 78.419495%)" offset="0.390625"/><stop stop-opacity="1" stop-color="rgb(5.543518%, 56.520081%, 78.62854%)" offset="0.398438"/><stop stop-opacity="1" stop-color="rgb(5.587769%, 56.306458%, 78.839111%)" offset="0.40625"/><stop stop-opacity="1" stop-color="rgb(5.633545%, 56.092834%, 79.049683%)" offset="0.414063"/><stop stop-opacity="1" stop-color="rgb(5.677795%, 55.880737%, 79.258728%)" offset="0.421875"/><stop stop-opacity="1" stop-color="rgb(5.722046%, 55.667114%, 79.469299%)" offset="0.429688"/><stop stop-opacity="1" stop-color="rgb(5.766296%, 55.453491%, 79.678345%)" offset="0.4375"/><stop stop-opacity="1" stop-color="rgb(5.810547%, 55.241394%, 79.888916%)" offset="0.445312"/><stop stop-opacity="1" stop-color="rgb(5.856323%, 55.027771%, 80.099487%)" offset="0.453125"/><stop stop-opacity="1" stop-color="rgb(5.900574%, 54.814148%, 80.308533%)" offset="0.460938"/><stop stop-opacity="1" stop-color="rgb(5.944824%, 54.600525%, 80.519104%)" offset="0.46875"/><stop stop-opacity="1" stop-color="rgb(5.989075%, 54.388428%, 80.728149%)" offset="0.476562"/><stop stop-opacity="1" stop-color="rgb(6.034851%, 54.174805%, 80.938721%)" offset="0.484375"/><stop stop-opacity="1" stop-color="rgb(6.079102%, 53.961182%, 81.149292%)" offset="0.492188"/><stop stop-opacity="1" stop-color="rgb(6.123352%, 53.749084%, 81.358337%)" offset="0.5"/><stop stop-opacity="1" stop-color="rgb(6.167603%, 53.535461%, 81.568909%)" offset="0.507813"/><stop stop-opacity="1" stop-color="rgb(6.211853%, 53.321838%, 81.777954%)" offset="0.515625"/><stop stop-opacity="1" stop-color="rgb(6.257629%, 53.108215%, 81.988525%)" offset="0.523438"/><stop stop-opacity="1" stop-color="rgb(6.30188%, 52.896118%, 82.199097%)" offset="0.53125"/><stop stop-opacity="1" stop-color="rgb(6.34613%, 52.682495%, 82.408142%)" offset="0.539063"/><stop stop-opacity="1" stop-color="rgb(6.390381%, 52.468872%, 82.618713%)" offset="0.546875"/><stop stop-opacity="1" stop-color="rgb(6.434631%, 52.255249%, 82.827759%)" offset="0.554688"/><stop stop-opacity="1" stop-color="rgb(6.480408%, 52.043152%, 83.03833%)" offset="0.5625"/><stop stop-opacity="1" stop-color="rgb(6.524658%, 51.829529%, 83.248901%)" offset="0.570313"/><stop stop-opacity="1" stop-color="rgb(6.568909%, 51.615906%, 83.457947%)" offset="0.578125"/><stop stop-opacity="1" stop-color="rgb(6.613159%, 51.403809%, 83.668518%)" offset="0.585938"/><stop stop-opacity="1" stop-color="rgb(6.658936%, 51.190186%, 83.877563%)" offset="0.59375"/><stop stop-opacity="1" stop-color="rgb(6.703186%, 50.976562%, 84.088135%)" offset="0.601563"/><stop stop-opacity="1" stop-color="rgb(6.747437%, 50.762939%, 84.298706%)" offset="0.609375"/><stop stop-opacity="1" stop-color="rgb(6.791687%, 50.550842%, 84.507751%)" offset="0.617188"/><stop stop-opacity="1" stop-color="rgb(6.835938%, 50.337219%, 84.718323%)" offset="0.625"/><stop stop-opacity="1" stop-color="rgb(6.881714%, 50.123596%, 84.927368%)" offset="0.632812"/><stop stop-opacity="1" stop-color="rgb(6.925964%, 49.911499%, 85.137939%)" offset="0.640625"/><stop stop-opacity="1" stop-color="rgb(6.970215%, 49.697876%, 85.348511%)" offset="0.648438"/><stop stop-opacity="1" stop-color="rgb(7.014465%, 49.484253%, 85.557556%)" offset="0.65625"/><stop stop-opacity="1" stop-color="rgb(7.060242%, 49.27063%, 85.768127%)" offset="0.664062"/><stop stop-opacity="1" stop-color="rgb(7.104492%, 49.058533%, 85.977173%)" offset="0.671875"/><stop stop-opacity="1" stop-color="rgb(7.148743%, 48.84491%, 86.187744%)" offset="0.679688"/><stop stop-opacity="1" stop-color="rgb(7.192993%, 48.631287%, 86.398315%)" offset="0.6875"/><stop stop-opacity="1" stop-color="rgb(7.237244%, 48.419189%, 86.607361%)" offset="0.695312"/><stop stop-opacity="1" stop-color="rgb(7.28302%, 48.205566%, 86.817932%)" offset="0.703125"/><stop stop-opacity="1" stop-color="rgb(7.327271%, 47.991943%, 87.026978%)" offset="0.710938"/><stop stop-opacity="1" stop-color="rgb(7.371521%, 47.77832%, 87.237549%)" offset="0.71875"/><stop stop-opacity="1" stop-color="rgb(7.415771%, 47.566223%, 87.44812%)" offset="0.726562"/><stop stop-opacity="1" stop-color="rgb(7.461548%, 47.3526%, 87.657166%)" offset="0.734375"/><stop stop-opacity="1" stop-color="rgb(7.505798%, 47.138977%, 87.867737%)" offset="0.742188"/><stop stop-opacity="1" stop-color="rgb(7.550049%, 46.925354%, 88.076782%)" offset="0.75"/><stop stop-opacity="1" stop-color="rgb(7.594299%, 46.713257%, 88.287354%)" offset="0.757813"/><stop stop-opacity="1" stop-color="rgb(7.63855%, 46.499634%, 88.497925%)" offset="0.765625"/><stop stop-opacity="1" stop-color="rgb(7.684326%, 46.286011%, 88.70697%)" offset="0.773438"/><stop stop-opacity="1" stop-color="rgb(7.728577%, 46.073914%, 88.917542%)" offset="0.78125"/><stop stop-opacity="1" stop-color="rgb(7.772827%, 45.860291%, 89.126587%)" offset="0.789063"/><stop stop-opacity="1" stop-color="rgb(7.817078%, 45.646667%, 89.337158%)" offset="0.796875"/><stop stop-opacity="1" stop-color="rgb(7.862854%, 45.433044%, 89.546204%)" offset="0.804688"/><stop stop-opacity="1" stop-color="rgb(7.907104%, 45.220947%, 89.756775%)" offset="0.8125"/><stop stop-opacity="1" stop-color="rgb(7.951355%, 45.007324%, 89.967346%)" offset="0.820313"/><stop stop-opacity="1" stop-color="rgb(7.995605%, 44.793701%, 90.176392%)" offset="0.828125"/><stop stop-opacity="1" stop-color="rgb(8.039856%, 44.581604%, 90.386963%)" offset="0.835938"/><stop stop-opacity="1" stop-color="rgb(8.085632%, 44.367981%, 90.596008%)" offset="0.84375"/><stop stop-opacity="1" stop-color="rgb(8.129883%, 44.154358%, 90.80658%)" offset="0.851563"/><stop stop-opacity="1" stop-color="rgb(8.174133%, 43.940735%, 91.017151%)" offset="0.859375"/><stop stop-opacity="1" stop-color="rgb(8.218384%, 43.728638%, 91.226196%)" offset="0.867188"/><stop stop-opacity="1" stop-color="rgb(8.262634%, 43.515015%, 91.436768%)" offset="0.875"/><stop stop-opacity="1" stop-color="rgb(8.308411%, 43.301392%, 91.645813%)" offset="0.882813"/><stop stop-opacity="1" stop-color="rgb(8.352661%, 43.087769%, 91.856384%)" offset="0.890625"/><stop stop-opacity="1" stop-color="rgb(8.396912%, 42.875671%, 92.066956%)" offset="0.898438"/><stop stop-opacity="1" stop-color="rgb(8.441162%, 42.662048%, 92.276001%)" offset="0.904943"/><stop stop-opacity="1" stop-color="rgb(8.46405%, 42.555237%, 92.381287%)" offset="0.90625"/><stop stop-opacity="1" stop-color="rgb(8.486938%, 42.448425%, 92.486572%)" offset="0.914063"/><stop stop-opacity="1" stop-color="rgb(8.531189%, 42.236328%, 92.695618%)" offset="0.921875"/><stop stop-opacity="1" stop-color="rgb(8.575439%, 42.022705%, 92.906189%)" offset="0.929688"/><stop stop-opacity="1" stop-color="rgb(8.61969%, 41.809082%, 93.11676%)" offset="0.9375"/><stop stop-opacity="1" stop-color="rgb(8.66394%, 41.595459%, 93.325806%)" offset="0.945313"/><stop stop-opacity="1" stop-color="rgb(8.709717%, 41.383362%, 93.536377%)" offset="0.953125"/><stop stop-opacity="1" stop-color="rgb(8.753967%, 41.169739%, 93.745422%)" offset="0.960938"/><stop stop-opacity="1" stop-color="rgb(8.798218%, 40.956116%, 93.955994%)" offset="0.96875"/><stop stop-opacity="1" stop-color="rgb(8.842468%, 40.744019%, 94.166565%)" offset="0.976562"/><stop stop-opacity="1" stop-color="rgb(8.888245%, 40.530396%, 94.37561%)" offset="0.984375"/><stop stop-opacity="1" stop-color="rgb(8.932495%, 40.316772%, 94.586182%)" offset="0.992188"/><stop stop-opacity="1" stop-color="rgb(8.976746%, 40.104675%, 94.795227%)" offset="1"/></linearGradient><clipPath id="75ff733e76"><path d="M 1328.011719 352.402344 L 1364.960938 352.402344 L 1364.960938 389.355469 L 1328.011719 389.355469 Z M 1328.011719 352.402344 " clip-rule="nonzero"/></clipPath><clipPath id="9529f793c0"><path d="M 1346.5 352.402344 C 1336.289062 352.402344 1328.011719 360.679688 1328.011719 370.894531 C 1328.011719 381.105469 1336.289062 389.382812 1346.5 389.382812 C 1356.714844 389.382812 1364.992188 381.105469 1364.992188 370.894531 C 1364.992188 360.679688 1356.714844 352.402344 1346.5 352.402344 Z M 1346.5 352.402344 " clip-rule="nonzero"/></clipPath><clipPath id="f0ce432677"><path d="M 1092.476562 378.164062 L 1202 378.164062 L 1202 458.699219 L 1092.476562 458.699219 Z M 1092.476562 378.164062 " clip-rule="nonzero"/></clipPath><clipPath id="092367a2f4"><path d="M 1160 446 L 1186 446 L 1186 471 L 1160 471 Z M 1160 446 " clip-rule="nonzero"/></clipPath><clipPath id="6a2ab32d35"><path d="M 1168.398438 443.464844 L 1188.847656 462.65625 L 1177.953125 474.261719 L 1157.503906 455.070312 Z M 1168.398438 443.464844 " clip-rule="nonzero"/></clipPath><clipPath id="0f84a54ef1"><path d="M 1174.203125 448.910156 L 1183.035156 457.199219 C 1186.242188 460.210938 1186.402344 465.246094 1183.394531 468.453125 C 1180.386719 471.65625 1175.347656 471.816406 1172.144531 468.808594 L 1163.308594 460.519531 C 1160.105469 457.511719 1159.945312 452.472656 1162.953125 449.265625 C 1165.960938 446.0625 1170.996094 445.902344 1174.203125 448.910156 Z M 1174.203125 448.910156 " clip-rule="nonzero"/></clipPath><clipPath id="7b9addf7d9"><path d="M 1103.472656 388.753906 L 1157.507812 388.753906 L 1157.507812 442.789062 L 1103.472656 442.789062 Z M 1103.472656 388.753906 " clip-rule="nonzero"/></clipPath><clipPath id="8da7bc27e0"><path d="M 1130.492188 388.753906 C 1115.570312 388.753906 1103.472656 400.851562 1103.472656 415.773438 C 1103.472656 430.691406 1115.570312 442.789062 1130.492188 442.789062 C 1145.410156 442.789062 1157.507812 430.691406 1157.507812 415.773438 C 1157.507812 400.851562 1145.410156 388.753906 1130.492188 388.753906 Z M 1130.492188 388.753906 " clip-rule="nonzero"/></clipPath><linearGradient x1="0.000132761" gradientTransform="matrix(0.21107, 0, 0, 0.21107, 1103.473627, 388.754627)" y1="128" x2="255.999989" gradientUnits="userSpaceOnUse" y2="128" id="647d2844e3"><stop stop-opacity="1" stop-color="rgb(3.49884%, 65.899658%, 69.398499%)" offset="0"/><stop stop-opacity="1" stop-color="rgb(3.535461%, 65.718079%, 69.577026%)" offset="0.015625"/><stop stop-opacity="1" stop-color="rgb(3.608704%, 65.354919%, 69.932556%)" offset="0.03125"/><stop stop-opacity="1" stop-color="rgb(3.683472%, 64.993286%, 70.289612%)" offset="0.046875"/><stop stop-opacity="1" stop-color="rgb(3.756714%, 64.630127%, 70.645142%)" offset="0.0625"/><stop stop-opacity="1" stop-color="rgb(3.829956%, 64.266968%, 71.002197%)" offset="0.078125"/><stop stop-opacity="1" stop-color="rgb(3.903198%, 63.905334%, 71.357727%)" offset="0.09375"/><stop stop-opacity="1" stop-color="rgb(3.97644%, 63.542175%, 71.714783%)" offset="0.109375"/><stop stop-opacity="1" stop-color="rgb(4.049683%, 63.180542%, 72.070312%)" offset="0.125"/><stop stop-opacity="1" stop-color="rgb(4.122925%, 62.817383%, 72.427368%)" offset="0.140625"/><stop stop-opacity="1" stop-color="rgb(4.196167%, 62.45575%, 72.782898%)" offset="0.15625"/><stop stop-opacity="1" stop-color="rgb(4.270935%, 62.09259%, 73.139954%)" offset="0.171875"/><stop stop-opacity="1" stop-color="rgb(4.344177%, 61.729431%, 73.495483%)" offset="0.1875"/><stop stop-opacity="1" stop-color="rgb(4.417419%, 61.367798%, 73.852539%)" offset="0.203125"/><stop stop-opacity="1" stop-color="rgb(4.490662%, 61.004639%, 74.208069%)" offset="0.21875"/><stop stop-opacity="1" stop-color="rgb(4.563904%, 60.643005%, 74.565125%)" offset="0.234375"/><stop stop-opacity="1" stop-color="rgb(4.637146%, 60.279846%, 74.920654%)" offset="0.25"/><stop stop-opacity="1" stop-color="rgb(4.710388%, 59.918213%, 75.27771%)" offset="0.265625"/><stop stop-opacity="1" stop-color="rgb(4.78363%, 59.555054%, 75.63324%)" offset="0.28125"/><stop stop-opacity="1" stop-color="rgb(4.858398%, 59.191895%, 75.98877%)" offset="0.296875"/><stop stop-opacity="1" stop-color="rgb(4.931641%, 58.830261%, 76.345825%)" offset="0.3125"/><stop stop-opacity="1" stop-color="rgb(5.004883%, 58.467102%, 76.701355%)" offset="0.328125"/><stop stop-opacity="1" stop-color="rgb(5.078125%, 58.105469%, 77.058411%)" offset="0.34375"/><stop stop-opacity="1" stop-color="rgb(5.151367%, 57.74231%, 77.41394%)" offset="0.359375"/><stop stop-opacity="1" stop-color="rgb(5.224609%, 57.380676%, 77.770996%)" offset="0.375"/><stop stop-opacity="1" stop-color="rgb(5.297852%, 57.017517%, 78.126526%)" offset="0.390625"/><stop stop-opacity="1" stop-color="rgb(5.371094%, 56.655884%, 78.483582%)" offset="0.40625"/><stop stop-opacity="1" stop-color="rgb(5.445862%, 56.292725%, 78.839111%)" offset="0.421875"/><stop stop-opacity="1" stop-color="rgb(5.519104%, 55.929565%, 79.196167%)" offset="0.4375"/><stop stop-opacity="1" stop-color="rgb(5.592346%, 55.567932%, 79.551697%)" offset="0.453125"/><stop stop-opacity="1" stop-color="rgb(5.665588%, 55.204773%, 79.908752%)" offset="0.46875"/><stop stop-opacity="1" stop-color="rgb(5.738831%, 54.84314%, 80.264282%)" offset="0.484375"/><stop stop-opacity="1" stop-color="rgb(5.812073%, 54.47998%, 80.621338%)" offset="0.5"/><stop stop-opacity="1" stop-color="rgb(5.885315%, 54.118347%, 80.976868%)" offset="0.515625"/><stop stop-opacity="1" stop-color="rgb(5.958557%, 53.755188%, 81.333923%)" offset="0.53125"/><stop stop-opacity="1" stop-color="rgb(6.033325%, 53.392029%, 81.689453%)" offset="0.546875"/><stop stop-opacity="1" stop-color="rgb(6.106567%, 53.030396%, 82.044983%)" offset="0.5625"/><stop stop-opacity="1" stop-color="rgb(6.17981%, 52.667236%, 82.402039%)" offset="0.578125"/><stop stop-opacity="1" stop-color="rgb(6.253052%, 52.305603%, 82.757568%)" offset="0.59375"/><stop stop-opacity="1" stop-color="rgb(6.326294%, 51.942444%, 83.114624%)" offset="0.609375"/><stop stop-opacity="1" stop-color="rgb(6.399536%, 51.580811%, 83.470154%)" offset="0.625"/><stop stop-opacity="1" stop-color="rgb(6.472778%, 51.217651%, 83.827209%)" offset="0.640625"/><stop stop-opacity="1" stop-color="rgb(6.547546%, 50.854492%, 84.182739%)" offset="0.65625"/><stop stop-opacity="1" stop-color="rgb(6.620789%, 50.492859%, 84.539795%)" offset="0.671875"/><stop stop-opacity="1" stop-color="rgb(6.694031%, 50.1297%, 84.895325%)" offset="0.6875"/><stop stop-opacity="1" stop-color="rgb(6.767273%, 49.768066%, 85.25238%)" offset="0.703125"/><stop stop-opacity="1" stop-color="rgb(6.840515%, 49.404907%, 85.60791%)" offset="0.71875"/><stop stop-opacity="1" stop-color="rgb(6.913757%, 49.043274%, 85.964966%)" offset="0.734375"/><stop stop-opacity="1" stop-color="rgb(6.987%, 48.680115%, 86.320496%)" offset="0.75"/><stop stop-opacity="1" stop-color="rgb(7.060242%, 48.316956%, 86.677551%)" offset="0.765625"/><stop stop-opacity="1" stop-color="rgb(7.13501%, 47.955322%, 87.033081%)" offset="0.78125"/><stop stop-opacity="1" stop-color="rgb(7.208252%, 47.592163%, 87.390137%)" offset="0.796875"/><stop stop-opacity="1" stop-color="rgb(7.281494%, 47.23053%, 87.745667%)" offset="0.8125"/><stop stop-opacity="1" stop-color="rgb(7.354736%, 46.867371%, 88.102722%)" offset="0.828125"/><stop stop-opacity="1" stop-color="rgb(7.427979%, 46.505737%, 88.458252%)" offset="0.84375"/><stop stop-opacity="1" stop-color="rgb(7.501221%, 46.142578%, 88.813782%)" offset="0.859375"/><stop stop-opacity="1" stop-color="rgb(7.574463%, 45.779419%, 89.170837%)" offset="0.875"/><stop stop-opacity="1" stop-color="rgb(7.647705%, 45.417786%, 89.526367%)" offset="0.890625"/><stop stop-opacity="1" stop-color="rgb(7.722473%, 45.054626%, 89.883423%)" offset="0.90625"/><stop stop-opacity="1" stop-color="rgb(7.795715%, 44.692993%, 90.238953%)" offset="0.921875"/><stop stop-opacity="1" stop-color="rgb(7.868958%, 44.329834%, 90.596008%)" offset="0.9375"/><stop stop-opacity="1" stop-color="rgb(7.9422%, 43.968201%, 90.951538%)" offset="0.953125"/><stop stop-opacity="1" stop-color="rgb(8.015442%, 43.605042%, 91.308594%)" offset="0.96875"/><stop stop-opacity="1" stop-color="rgb(8.088684%, 43.243408%, 91.664124%)" offset="0.984375"/><stop stop-opacity="1" stop-color="rgb(8.161926%, 42.880249%, 92.021179%)" offset="1"/></linearGradient><clipPath id="d2af884d0d"><path d="M 1122 400.359375 L 1139 400.359375 L 1139 417 L 1122 417 Z M 1122 400.359375 " clip-rule="nonzero"/></clipPath><clipPath id="32f6cc9d3d"><path d="M 1119.671875 419 L 1141.464844 419 L 1141.464844 431.628906 L 1119.671875 431.628906 Z M 1119.671875 419 " clip-rule="nonzero"/></clipPath></defs><g clip-path="url(#ca622f87e5)"><path stroke-linecap="butt" transform="matrix(6.685463, 0, 0, 6.685463, 75.433046, 271.287076)" fill="none" stroke-linejoin="miter" d="M 9.325936 26.788246 C 11.522283 26.788246 13.326571 25.054073 13.413046 22.859479 L 13.483745 21.061034 C 13.499521 20.666054 13.591838 20.277501 13.756608 19.917578 C 14.250918 18.83372 15.332439 18.138415 16.523806 18.138415 L 18.749951 18.138415 " stroke="url(#6032524196)" stroke-width="3.486" stroke-miterlimit="4"/></g><path fill="#000000" d="M 165.398438 380.46875 L 165.398438 345.082031 L 147.273438 349.886719 L 147.273438 380.46875 Z M 165.96875 380.46875 L 136.070312 380.46875 C 113.660156 380.46875 95.488281 398.636719 95.488281 421.050781 L 95.488281 424.21875 C 95.488281 444.355469 111.398438 460.777344 131.335938 461.601562 L 131.335938 438.824219 C 123.378906 437.851562 117.214844 431.070312 117.214844 422.851562 L 117.214844 421.488281 C 117.214844 411.847656 125.027344 404.03125 134.667969 404.03125 L 148.050781 404.03125 C 148.636719 398.914062 151.183594 393.191406 155.453125 388.289062 C 158.660156 384.609375 162.347656 381.953125 165.96875 380.46875 Z M 165.96875 380.46875 " fill-opacity="1" fill-rule="evenodd"/><path fill="#000000" d="M 231.453125 463.4375 C 226.171875 463.4375 223.535156 460.917969 223.535156 455.882812 L 223.535156 353.414062 C 223.535156 348.378906 226.171875 345.863281 231.453125 345.863281 L 259.207031 345.863281 C 270.308594 345.863281 279.894531 349.199219 287.964844 355.871094 C 296.394531 362.910156 300.613281 371.464844 300.613281 381.535156 L 300.613281 427.765625 C 300.613281 432.859375 299.460938 437.621094 297.15625 442.050781 C 294.847656 446.480469 291.785156 450.273438 287.964844 453.425781 C 279.894531 460.101562 270.308594 463.4375 259.207031 463.4375 Z M 237.820312 360.242188 L 237.820312 449.148438 L 259.207031 449.148438 C 266.851562 449.148438 273.402344 446.902344 278.863281 442.414062 C 283.839844 438.289062 286.324219 433.40625 286.324219 427.765625 L 286.324219 381.535156 C 286.324219 375.953125 283.839844 371.070312 278.863281 366.882812 C 273.464844 362.453125 266.910156 360.242188 259.207031 360.242188 Z M 359.855469 411.109375 C 363.859375 411.109375 366.316406 409.5625 367.226562 406.46875 C 367.53125 405.378906 367.679688 401.949219 367.679688 396.1875 C 367.679688 392.121094 366.40625 389.058594 363.859375 386.996094 C 360.824219 384.507812 356.277344 383.265625 350.207031 383.265625 C 344.445312 383.265625 339.957031 384.566406 336.742188 387.175781 C 334.191406 389.238281 332.917969 392.242188 332.917969 396.1875 L 332.917969 411.109375 Z M 318.632812 396.1875 C 318.632812 387.875 321.695312 381.230469 327.824219 376.257812 C 333.648438 371.523438 341.109375 369.160156 350.207031 369.160156 C 359.550781 369.160156 367.074219 371.464844 372.777344 376.074219 C 378.84375 380.988281 381.9375 388.480469 382.058594 398.550781 C 382.300781 416.386719 375.234375 425.308594 360.855469 425.308594 L 337.832031 425.308594 C 335.40625 425.308594 333.769531 424.914062 332.917969 424.125 L 332.917969 440.050781 C 332.917969 443.386719 334.648438 446.054688 338.105469 448.058594 C 340.714844 449.632812 343.929688 450.605469 347.753906 450.96875 C 351.148438 451.210938 354.605469 450.9375 358.125 450.148438 C 360.796875 449.542969 363.039062 448.574219 364.859375 447.238281 C 365.527344 446.753906 366.132812 446.175781 366.679688 445.507812 C 368.925781 443.023438 371.777344 442.628906 375.234375 444.328125 L 382.152344 447.691406 C 380.875 450.667969 379.117188 453.304688 376.871094 455.609375 C 373.65625 458.824219 369.59375 461.253906 364.679688 462.890625 C 360.1875 464.40625 355.519531 465.164062 350.664062 465.164062 C 346.660156 465.164062 342.960938 464.769531 339.5625 463.980469 C 335.679688 463.074219 332.25 461.617188 329.277344 459.613281 C 325.761719 457.308594 323.089844 454.15625 321.269531 450.148438 C 319.511719 446.328125 318.632812 442.203125 318.632812 437.773438 Z M 397.074219 353.050781 C 397.074219 348.015625 399.714844 345.496094 404.992188 345.496094 L 411.363281 345.496094 L 411.363281 374.800781 C 417.429688 371.039062 424.132812 369.160156 431.472656 369.160156 C 440.511719 369.160156 448.460938 371.949219 455.316406 377.53125 C 462.355469 383.292969 465.871094 390.421875 465.871094 398.914062 L 465.871094 435.40625 C 465.871094 443.902344 462.355469 451.058594 455.316406 456.882812 C 448.582031 462.40625 440.632812 465.164062 431.472656 465.164062 C 422.253906 465.164062 414.335938 462.40625 407.722656 456.882812 C 400.625 451 397.074219 443.839844 397.074219 435.40625 Z M 411.363281 435.40625 C 411.363281 439.472656 413.183594 442.992188 416.820312 445.964844 C 420.828125 449.300781 425.710938 450.96875 431.472656 450.96875 C 437.238281 450.96875 442.152344 449.300781 446.214844 445.964844 C 449.796875 442.992188 451.585938 439.472656 451.585938 435.40625 L 451.585938 398.914062 C 451.585938 394.851562 449.796875 391.363281 446.214844 388.449219 C 442.152344 385.113281 437.238281 383.445312 431.472656 383.445312 C 425.710938 383.445312 420.828125 385.113281 416.820312 388.449219 C 413.183594 391.363281 411.363281 394.851562 411.363281 398.914062 Z M 483.164062 378.804688 C 483.164062 373.769531 485.800781 371.25 491.082031 371.25 L 497.449219 371.25 L 497.449219 436.683594 C 497.449219 440.382812 499.089844 443.597656 502.363281 446.328125 C 506.125 449.421875 510.675781 450.96875 516.015625 450.96875 C 521.292969 450.96875 525.84375 449.421875 529.664062 446.328125 C 532.941406 443.660156 534.578125 440.441406 534.578125 436.683594 L 534.578125 378.804688 C 534.578125 373.769531 537.21875 371.25 542.496094 371.25 L 548.957031 371.25 L 548.957031 436.683594 C 548.957031 444.75 545.558594 451.636719 538.765625 457.339844 C 532.515625 462.558594 524.933594 465.164062 516.015625 465.164062 C 507.21875 465.164062 499.664062 462.558594 493.355469 457.339844 C 486.558594 451.695312 483.164062 444.8125 483.164062 436.683594 Z M 600.738281 369.523438 C 609.835938 369.523438 617.785156 372.3125 624.578125 377.894531 C 631.617188 383.71875 635.136719 390.878906 635.136719 399.371094 L 635.136719 462.800781 C 635.136719 467.226562 634.257812 471.203125 632.496094 474.722656 C 630.738281 478.300781 628.21875 481.242188 624.945312 483.546875 C 621.605469 485.914062 618.117188 487.644531 614.480469 488.734375 C 605.984375 491.222656 597.28125 491.375 588.359375 489.191406 C 583.386719 487.917969 579.171875 485.851562 575.710938 483 C 574.800781 482.214844 574.011719 481.453125 573.34375 480.726562 L 580.71875 474.722656 C 582.839844 472.960938 585.207031 472.75 587.816406 474.082031 C 593.941406 477.238281 601.527344 477.574219 610.566406 475.085938 C 617.421875 473.144531 620.847656 469.046875 620.847656 462.800781 L 620.847656 460.070312 C 614.902344 463.832031 608.199219 465.710938 600.738281 465.710938 C 591.515625 465.710938 583.566406 462.921875 576.894531 457.339844 C 569.855469 451.515625 566.339844 444.386719 566.339844 435.953125 L 566.339844 399.371094 C 566.339844 390.9375 569.855469 383.78125 576.894531 377.894531 C 583.628906 372.3125 591.578125 369.523438 600.738281 369.523438 Z M 615.480469 388.816406 C 611.414062 385.476562 606.5 383.808594 600.738281 383.808594 C 594.972656 383.808594 590.089844 385.476562 586.085938 388.816406 C 582.445312 391.847656 580.625 395.367188 580.625 399.371094 L 580.625 435.953125 C 580.625 439.957031 582.445312 443.445312 586.085938 446.417969 C 590.089844 449.753906 594.972656 451.425781 600.738281 451.425781 C 606.5 451.425781 611.414062 449.753906 615.480469 446.417969 C 619.058594 443.507812 620.847656 440.019531 620.847656 435.953125 L 620.847656 399.371094 C 620.847656 395.367188 619.058594 391.847656 615.480469 388.816406 Z M 615.480469 388.816406 " fill-opacity="1" fill-rule="nonzero"/><g clip-path="url(#4ddeb1096f)"><g clip-path="url(#5ee58690a6)"><path fill="url(#7c807a27b2)" d="M 657.066406 318.085938 L 657.066406 465.277344 L 998.027344 465.277344 L 998.027344 318.085938 Z M 657.066406 318.085938 " fill-rule="nonzero"/></g></g><g clip-path="url(#75ff733e76)"><g clip-path="url(#9529f793c0)"><path stroke-linecap="butt" transform="matrix(0.947505, 0, 0, 0.947505, 1328.009939, 352.40171)" fill="none" stroke-linejoin="miter" d="M 19.514468 0.000668576 C 8.737812 0.000668576 0.00187792 8.736603 0.00187792 19.517381 C 0.00187792 30.294037 8.737812 39.029971 19.514468 39.029971 C 30.295246 39.029971 39.031181 30.294037 39.031181 19.517381 C 39.031181 8.736603 30.295246 0.000668576 19.514468 0.000668576 Z M 19.514468 0.000668576 " stroke="#000000" stroke-width="4.749314" stroke-opacity="1" stroke-miterlimit="4"/></g></g><g fill="#000000" fill-opacity="1"><g transform="translate(1336.044203, 375.919429)"><g><path d="M 7.90625 -9.875 L 7.90625 -8.234375 L 5.0625 -8.234375 L 5.0625 0 L 3.125 0 L 3.125 -8.234375 L 0.265625 -8.234375 L 0.265625 -9.875 Z M 7.90625 -9.875 "/></g></g></g><g fill="#000000" fill-opacity="1"><g transform="translate(1344.224424, 375.919429)"><g><path d="M 3.078125 0 L 1.28125 0 L 1.28125 -9.875 L 3.828125 -9.875 L 6.328125 -2.609375 L 6.46875 -2.609375 L 8.953125 -9.875 L 11.453125 -9.875 L 11.453125 0 L 9.59375 0 L 9.59375 -6.515625 L 9.4375 -6.546875 L 7.15625 0 L 5.515625 0 L 3.234375 -6.546875 L 3.078125 -6.515625 Z M 3.078125 0 "/></g></g></g><path stroke-linecap="butt" transform="matrix(1.449609, 0, 0, 1.449609, 1037.782106, 288.466148)" fill="none" stroke-linejoin="miter" d="M 20.912917 48.075108 C 20.912917 44.889981 22.583627 43.297418 25.922351 43.297418 L 29.950916 43.297418 L 29.950916 103.801347 C 29.950916 108.177528 28.051158 111.880035 24.251641 114.911564 C 20.75932 117.638593 16.633746 118.999413 11.874919 118.999413 C 9.341908 118.999413 6.884349 118.557483 4.504935 117.676319 C 3.009381 117.13738 2.012345 116.293941 1.511132 115.143308 C 0.974888 113.952254 1.225495 112.704611 2.260256 111.40038 L 5.081599 107.832607 C 6.924769 109.25271 9.188311 109.961414 11.874919 109.961414 C 14.561527 109.961414 16.825069 109.25271 18.668239 107.832607 C 20.163793 106.603827 20.912917 105.259176 20.912917 103.801347 Z M 20.912917 48.075108 " stroke="#000000" stroke-width="1.621207" stroke-opacity="1" stroke-miterlimit="4"/><path stroke-linecap="butt" transform="matrix(1.449609, 0, 0, 1.449609, 1037.782106, 288.466148)" fill="none" stroke-linejoin="miter" d="M 101.27673 48.075108 C 101.27673 44.889981 102.947439 43.297418 106.286163 43.297418 L 110.314728 43.297418 L 110.314728 61.834207 C 114.154665 59.454794 118.393416 58.266435 123.039066 58.266435 C 128.757203 58.266435 133.785499 60.031458 138.121259 63.561505 C 142.572891 67.207424 144.798707 71.718339 144.798707 77.091556 L 144.798707 100.174291 C 144.798707 105.547508 142.572891 110.077286 138.121259 113.76093 C 133.86095 117.253252 128.832654 118.999413 123.039066 118.999413 C 117.205056 118.999413 112.195623 117.253252 108.013461 113.76093 C 103.521408 110.03956 101.27673 105.509782 101.27673 100.174291 Z M 110.314728 100.174291 C 110.314728 102.747722 111.468056 104.973538 113.769324 106.851739 C 116.302335 108.964378 119.393147 110.018003 123.039066 110.018003 C 126.684984 110.018003 129.791965 108.964378 132.365396 106.851739 C 134.628938 104.973538 135.760709 102.747722 135.760709 100.174291 L 135.760709 77.091556 C 135.760709 74.518125 134.628938 72.311172 132.365396 70.470697 C 129.791965 68.358058 126.684984 67.304433 123.039066 67.304433 C 119.393147 67.304433 116.302335 68.358058 113.769324 70.470697 C 111.468056 72.311172 110.314728 74.518125 110.314728 77.091556 Z M 153.429807 72.082123 C 154.160068 67.476893 156.404747 63.965709 160.166538 61.545875 C 163.580713 59.36048 167.975756 58.266435 173.348973 58.266435 C 179.449757 58.266435 184.402601 59.724263 188.202118 62.63992 C 190.465659 64.367218 192.192957 66.555309 193.381317 69.204191 L 189.180291 71.27641 C 187.490719 72.157574 186.089479 72.292309 184.976571 71.677919 C 184.785248 71.602467 184.305593 71.160538 183.537605 70.354825 C 183.308556 70.125776 183.05795 69.894032 182.791175 69.664984 C 180.603085 68.013137 177.455684 67.188561 173.348973 67.188561 C 166.517928 67.188561 162.793863 69.530249 162.179473 74.21093 C 161.796827 77.35833 162.775 79.81589 165.116688 81.580913 C 167.035309 83.001016 169.643771 83.863318 172.944769 84.170513 C 177.744016 84.631305 181.389935 85.38043 183.882526 86.415192 C 187.528445 87.951166 190.215053 90.50304 191.942351 94.073508 C 193.556472 97.487683 194.036127 101.192885 193.381317 105.183724 C 192.65375 109.751228 190.409071 113.243549 186.64728 115.660689 C 183.23041 117.886505 178.856924 118.999413 173.521433 118.999413 C 167.417955 118.999413 162.448942 117.541584 158.6117 114.625927 C 156.345464 112.898629 154.620861 110.710539 153.429807 108.061656 L 157.633527 105.932849 C 159.360825 105.086716 160.75937 104.951981 161.834552 105.528645 C 162.025876 105.644517 162.505531 106.086446 163.273518 106.851739 C 163.542987 107.121208 163.793594 107.352952 164.022643 107.544275 C 166.210733 109.193427 169.376997 110.018003 173.521433 110.018003 C 180.314753 110.018003 184.01726 107.697872 184.63165 103.052223 C 185.016991 99.867096 184.036123 97.393369 181.69713 95.628345 C 179.775815 94.245968 177.167352 93.402529 173.866354 93.095334 C 169.069802 92.594121 165.423883 91.828829 162.928598 90.791372 C 159.282679 89.255398 156.614933 86.722387 154.928056 83.19234 C 153.276209 79.77547 152.777691 76.072962 153.429807 72.082123 Z M 153.429807 72.082123 " stroke="#000000" stroke-width="1.621207" stroke-opacity="1" stroke-miterlimit="4"/><g fill="#000000" fill-opacity="1"><g transform="translate(1037.804756, 460.969602)"><g><path d="M 30.296875 -102.8125 C 30.296875 -107.425781 32.710938 -109.734375 37.546875 -109.734375 L 43.390625 -109.734375 L 43.390625 -22.03125 C 43.390625 -15.6875 40.632812 -10.316406 35.125 -5.921875 C 30.0625 -1.972656 24.082031 0 17.1875 0 C 13.519531 0 9.960938 -0.640625 6.515625 -1.921875 C 4.335938 -2.703125 2.890625 -3.925781 2.171875 -5.59375 C 1.390625 -7.3125 1.75 -9.117188 3.25 -11.015625 L 7.34375 -16.1875 C 10.007812 -14.132812 13.289062 -13.109375 17.1875 -13.109375 C 21.082031 -13.109375 24.363281 -14.132812 27.03125 -16.1875 C 29.207031 -17.96875 30.296875 -19.914062 30.296875 -22.03125 Z M 30.296875 -102.8125 "/></g></g></g><g fill="#000000" fill-opacity="1"><g transform="translate(1092.550141, 460.969602)"><g/></g></g><g fill="#000000" fill-opacity="1"><g transform="translate(1134.439514, 460.969602)"><g/></g></g><g fill="#000000" fill-opacity="1"><g transform="translate(1176.333002, 460.969602)"><g><path d="M 8.265625 -102.8125 C 8.265625 -107.425781 10.679688 -109.734375 15.515625 -109.734375 L 21.359375 -109.734375 L 21.359375 -82.859375 C 26.921875 -86.316406 33.070312 -88.046875 39.8125 -88.046875 C 48.09375 -88.046875 55.378906 -85.484375 61.671875 -80.359375 C 68.117188 -75.078125 71.34375 -68.539062 71.34375 -60.75 L 71.34375 -27.28125 C 71.34375 -19.5 68.117188 -12.9375 61.671875 -7.59375 C 55.492188 -2.53125 48.207031 0 39.8125 0 C 31.351562 0 24.09375 -2.53125 18.03125 -7.59375 C 11.519531 -12.988281 8.265625 -19.550781 8.265625 -27.28125 Z M 21.359375 -27.28125 C 21.359375 -23.5625 23.03125 -20.335938 26.375 -17.609375 C 30.039062 -14.546875 34.519531 -13.015625 39.8125 -13.015625 C 45.09375 -13.015625 49.597656 -14.546875 53.328125 -17.609375 C 56.609375 -20.335938 58.25 -23.5625 58.25 -27.28125 L 58.25 -60.75 C 58.25 -64.476562 56.609375 -67.675781 53.328125 -70.34375 C 49.597656 -73.40625 45.09375 -74.9375 39.8125 -74.9375 C 34.519531 -74.9375 30.039062 -73.40625 26.375 -70.34375 C 23.03125 -67.675781 21.359375 -64.476562 21.359375 -60.75 Z M 21.359375 -27.28125 "/></g></g></g><g fill="#000000" fill-opacity="1"><g transform="translate(1255.271943, 460.969602)"><g><path d="M 4.921875 -68.015625 C 5.984375 -74.691406 9.238281 -79.78125 14.6875 -83.28125 C 19.632812 -86.457031 26.003906 -88.046875 33.796875 -88.046875 C 42.640625 -88.046875 49.816406 -85.929688 55.328125 -81.703125 C 58.609375 -79.191406 61.113281 -76.019531 62.84375 -72.1875 L 56.75 -69.1875 C 54.300781 -67.90625 52.269531 -67.707031 50.65625 -68.59375 C 50.375 -68.707031 49.675781 -69.347656 48.5625 -70.515625 C 48.226562 -70.847656 47.867188 -71.179688 47.484375 -71.515625 C 44.316406 -73.910156 39.753906 -75.109375 33.796875 -75.109375 C 23.890625 -75.109375 18.492188 -71.710938 17.609375 -64.921875 C 17.054688 -60.359375 18.472656 -56.800781 21.859375 -54.25 C 24.640625 -52.1875 28.425781 -50.929688 33.21875 -50.484375 C 40.164062 -49.816406 45.445312 -48.734375 49.0625 -47.234375 C 54.351562 -45.003906 58.25 -41.304688 60.75 -36.140625 C 63.082031 -31.179688 63.78125 -25.8125 62.84375 -20.03125 C 61.78125 -13.40625 58.523438 -8.34375 53.078125 -4.84375 C 48.117188 -1.613281 41.773438 0 34.046875 0 C 25.203125 0 18 -2.113281 12.4375 -6.34375 C 9.15625 -8.84375 6.648438 -12.015625 4.921875 -15.859375 L 11.015625 -18.9375 C 13.515625 -20.164062 15.546875 -20.363281 17.109375 -19.53125 C 17.390625 -19.363281 18.082031 -18.722656 19.1875 -17.609375 C 19.582031 -17.222656 19.945312 -16.890625 20.28125 -16.609375 C 23.445312 -14.210938 28.035156 -13.015625 34.046875 -13.015625 C 43.890625 -13.015625 49.257812 -16.378906 50.15625 -23.109375 C 50.707031 -27.734375 49.285156 -31.320312 45.890625 -33.875 C 43.109375 -35.882812 39.328125 -37.109375 34.546875 -37.546875 C 27.585938 -38.273438 22.300781 -39.390625 18.6875 -40.890625 C 13.40625 -43.117188 9.539062 -46.789062 7.09375 -51.90625 C 4.695312 -56.851562 3.972656 -62.222656 4.921875 -68.015625 Z M 4.921875 -68.015625 "/></g></g></g><g clip-path="url(#f0ce432677)"><path fill="#000000" d="M 1199.402344 474.550781 L 1169.035156 444.183594 L 1166.277344 446.941406 L 1159.855469 440.519531 C 1165.277344 433.949219 1168.539062 425.53125 1168.539062 416.367188 C 1168.539062 395.394531 1151.476562 378.335938 1130.507812 378.335938 C 1109.539062 378.335938 1092.480469 395.398438 1092.480469 416.367188 C 1092.480469 437.335938 1109.539062 454.390625 1130.507812 454.390625 C 1139.507812 454.390625 1147.78125 451.242188 1154.300781 446 L 1160.761719 452.460938 L 1158.003906 455.21875 L 1188.371094 485.585938 C 1189.894531 487.109375 1191.890625 487.871094 1193.886719 487.871094 C 1195.882812 487.871094 1197.878906 487.109375 1199.402344 485.585938 C 1202.449219 482.539062 1202.449219 477.597656 1199.402344 474.550781 Z M 1100.28125 416.363281 C 1100.28125 399.699219 1113.839844 386.136719 1130.507812 386.136719 C 1147.175781 386.136719 1160.734375 399.699219 1160.734375 416.363281 C 1160.734375 433.03125 1147.175781 446.589844 1130.507812 446.589844 C 1113.839844 446.589844 1100.28125 433.03125 1100.28125 416.363281 Z M 1100.28125 416.363281 " fill-opacity="1" fill-rule="nonzero"/></g><path fill="#000000" d="M 1144.5625 402.222656 C 1151.839844 409.5 1155.105469 419.027344 1154.078125 427.46875 C 1155.433594 424.285156 1156.183594 420.785156 1156.183594 417.109375 C 1156.183594 402.515625 1144.355469 390.683594 1129.757812 390.683594 C 1126.214844 390.683594 1122.835938 391.390625 1119.742188 392.65625 C 1128.078125 391.785156 1137.410156 395.070312 1144.5625 402.222656 Z M 1144.5625 402.222656 " fill-opacity="1" fill-rule="nonzero"/><g clip-path="url(#092367a2f4)"><g clip-path="url(#6a2ab32d35)"><g clip-path="url(#0f84a54ef1)"><path fill="#000000" d="M 1168.398438 443.464844 L 1188.847656 462.65625 L 1177.953125 474.261719 L 1157.503906 455.070312 Z M 1168.398438 443.464844 " fill-opacity="1" fill-rule="nonzero"/></g></g></g><g clip-path="url(#7b9addf7d9)"><g clip-path="url(#8da7bc27e0)"><path fill="url(#647d2844e3)" d="M 1103.472656 388.753906 L 1103.472656 442.789062 L 1157.507812 442.789062 L 1157.507812 388.753906 Z M 1103.472656 388.753906 " fill-rule="nonzero"/></g></g><g clip-path="url(#d2af884d0d)"><path fill="#ffffff" d="M 1138.628906 408.476562 C 1138.628906 409.011719 1138.578125 409.539062 1138.476562 410.0625 C 1138.371094 410.585938 1138.21875 411.09375 1138.015625 411.585938 C 1137.8125 412.078125 1137.566406 412.542969 1137.273438 412.988281 C 1136.976562 413.429688 1136.644531 413.839844 1136.269531 414.21875 C 1135.894531 414.59375 1135.488281 414.929688 1135.046875 415.226562 C 1134.609375 415.523438 1134.144531 415.773438 1133.65625 415.976562 C 1133.167969 416.179688 1132.664062 416.335938 1132.144531 416.441406 C 1131.625 416.542969 1131.101562 416.59375 1130.570312 416.59375 C 1130.042969 416.59375 1129.519531 416.542969 1129 416.441406 C 1128.480469 416.335938 1127.976562 416.179688 1127.488281 415.976562 C 1127 415.773438 1126.535156 415.523438 1126.09375 415.226562 C 1125.652344 414.929688 1125.246094 414.59375 1124.871094 414.21875 C 1124.5 413.839844 1124.164062 413.429688 1123.871094 412.988281 C 1123.578125 412.542969 1123.328125 412.078125 1123.125 411.585938 C 1122.921875 411.09375 1122.769531 410.585938 1122.667969 410.0625 C 1122.5625 409.539062 1122.511719 409.011719 1122.511719 408.476562 C 1122.511719 407.945312 1122.5625 407.417969 1122.667969 406.894531 C 1122.769531 406.371094 1122.921875 405.863281 1123.125 405.371094 C 1123.328125 404.878906 1123.578125 404.410156 1123.871094 403.96875 C 1124.164062 403.523438 1124.5 403.113281 1124.871094 402.738281 C 1125.246094 402.359375 1125.652344 402.023438 1126.09375 401.726562 C 1126.535156 401.433594 1127 401.183594 1127.488281 400.976562 C 1127.976562 400.773438 1128.480469 400.621094 1129 400.515625 C 1129.519531 400.414062 1130.042969 400.359375 1130.570312 400.359375 C 1131.101562 400.359375 1131.625 400.414062 1132.144531 400.515625 C 1132.664062 400.621094 1133.167969 400.773438 1133.65625 400.976562 C 1134.144531 401.183594 1134.609375 401.433594 1135.046875 401.726562 C 1135.488281 402.023438 1135.894531 402.359375 1136.269531 402.738281 C 1136.644531 403.113281 1136.976562 403.523438 1137.273438 403.96875 C 1137.566406 404.410156 1137.8125 404.878906 1138.015625 405.371094 C 1138.21875 405.863281 1138.371094 406.371094 1138.476562 406.894531 C 1138.578125 407.417969 1138.628906 407.945312 1138.628906 408.476562 Z M 1138.628906 408.476562 " fill-opacity="1" fill-rule="nonzero"/></g><g clip-path="url(#32f6cc9d3d)"><path fill="#ffffff" d="M 1119.675781 425.3125 C 1119.558594 422.066406 1125.199219 419.953125 1128.035156 419.300781 C 1129.824219 419.300781 1129.675781 420.402344 1129.378906 420.953125 L 1127.734375 425.613281 C 1128.570312 427.660156 1130.171875 428.171875 1130.871094 428.171875 C 1132.183594 428.171875 1133.207031 426.265625 1133.554688 425.3125 L 1132.363281 422.457031 C 1131.464844 420.355469 1131.714844 419.601562 1132.363281 419.300781 C 1134.625 418.25 1141.464844 422.910156 1141.464844 425.3125 C 1135.496094 436.738281 1119.828125 429.375 1119.675781 425.3125 Z M 1119.675781 425.3125 " fill-opacity="1" fill-rule="nonzero"/></g></svg>